<svg xmlns="http://www.w3.org/2000/svg" xmlns:xlink="http://www.w3.org/1999/xlink" width="22" height="26.572" viewBox="0 0 22 26.572">
  <defs>
    <clipPath id="clip-path">
      <rect id="Rectangle_432" data-name="Rectangle 432" width="22" height="26.572" transform="translate(0 0)" fill="#fff"/>
    </clipPath>
  </defs>
  <g id="Group_2744" data-name="Group 2744" clip-path="url(#clip-path)">
    <path id="Path_843" data-name="Path 843" d="M26.558,5.912c-.28-.809-2.676,2.427-3.485.529C22.264,4.574,21.984,1.867,19.588,0,17.161,1.867,16.912,4.574,16.1,6.441S12.9,5.1,12.618,5.912s-.529,4.294,1.867,5.632c2.427,1.338,4.294,4.294,4.294,6.161s-1.058,2.676-1.058,3.765c0,1.058,1.867,5.1,1.867,5.1s1.867-4.014,1.867-5.1S20.366,19.6,20.366,17.7c0-1.867,1.867-4.823,4.294-6.161s2.147-4.823,1.9-5.632M21.58,10.05a6.393,6.393,0,0,0-2.022,2.458,6.393,6.393,0,0,0-2.022-2.458c-1.151-.622-.716-1.307-.342-1.307.342,0,1.307-.529,1.151-1.058A2.312,2.312,0,0,1,19.557,5.57,2.342,2.342,0,0,1,20.8,7.685c-.187.529.778,1.058,1.151,1.058.342,0,.778.685-.373,1.307" transform="translate(-8.573 0)" fill="#fff"/>
    <path id="Path_844" data-name="Path 844" d="M7.095,43.277c.933-.933,1.058-4.574-.933-5.507A8.689,8.689,0,0,1,2.4,33.6c-1.213.4-1.213,2.551-.529,3.485C.53,36.556,0,36.276,0,36.68a3.046,3.046,0,0,0,2.427,3.2c2.022.685,4.792,2.427,4.667,3.392" transform="translate(0 -23.145)" fill="#fff"/>
    <path id="Path_845" data-name="Path 845" d="M46.439,43.277c-.933-.933-1.089-4.574.933-5.507A8.689,8.689,0,0,0,51.137,33.6c1.213.4,1.213,2.551.529,3.485,1.338-.529,1.867-.809,1.867-.4a3.046,3.046,0,0,1-2.427,3.2c-2.022.685-4.792,2.427-4.667,3.392" transform="translate(-31.534 -23.145)" fill="#fff"/>
  </g>
</svg>
