<svg xmlns="http://www.w3.org/2000/svg" width="24" height="24" viewBox="0 0 24 24">
  <g id="Group_4064" data-name="Group 4064" transform="translate(-998.568)">
    <rect id="Rectangle_719" data-name="Rectangle 719" width="24" height="24" transform="translate(998.568)" fill="none"/>
    <g id="Group_4067" data-name="Group 4067" transform="translate(-138.069 1.82)">
      <path id="パス_1056" data-name="パス 1056" d="M254.072,22.071a.35.35,0,0,1-.35-.35V11.713L246.56,5.5,239.4,11.713V21.721a.35.35,0,1,1-.7,0V11.553a.35.35,0,0,1,.121-.264l7.512-6.512a.35.35,0,0,1,.459,0l7.512,6.512a.35.35,0,0,1,.121.264V21.721A.35.35,0,0,1,254.072,22.071Z" transform="translate(901.952 -5.041)" fill="#333"/>
      <path id="Path_1057" data-name="Path 1057" d="M0,0H19" transform="translate(1139 18.68)" fill="none"/>
      <path id="パス_1057_-_アウトライン" data-name="パス 1057 - アウトライン" d="M19,.35H0A.35.35,0,0,1-.35,0,.35.35,0,0,1,0-.35H19a.35.35,0,0,1,.35.35A.35.35,0,0,1,19,.35Z" transform="translate(1139 18.68)" fill="#333"/>
    </g>
  </g>
</svg>
