<svg xmlns="http://www.w3.org/2000/svg" width="25" height="25" viewBox="0 0 25 25">
  <path id="facebook" d="M19.883,7.758a12.388,12.388,0,0,1,6.31,1.717A12.626,12.626,0,0,1,29.35,28.546,12.736,12.736,0,0,1,22.3,32.758V23.772h2.451l.554-3.531H21.591V17.929a2.01,2.01,0,0,1,.427-1.328,1.955,1.955,0,0,1,1.568-.6h2.242V12.911q-.048-.016-.916-.123a18.2,18.2,0,0,0-1.975-.123,4.935,4.935,0,0,0-3.545,1.264,4.887,4.887,0,0,0-1.332,3.628v2.683H15.235v3.531H18.06v8.985a12.43,12.43,0,0,1-7.644-4.212A12.612,12.612,0,0,1,13.573,9.474,12.391,12.391,0,0,1,19.883,7.758Z" transform="translate(-7.383 -7.758)" fill="#fff" fill-rule="evenodd"/>
</svg>
