<svg id="Group_3963" data-name="Group 3963" xmlns="http://www.w3.org/2000/svg" xmlns:xlink="http://www.w3.org/1999/xlink" width="159.407" height="124.177" viewBox="0 0 159.407 124.177">
  <defs>
    <clipPath id="clip-path">
      <rect id="Rectangle_704" data-name="Rectangle 704" width="159.407" height="124.177" fill="#c1a760"/>
    </clipPath>
  </defs>
  <path id="Path_1115" data-name="Path 1115" d="M140.352,217.376l.977,2.7h-1.957Zm-.346-.733-2.093,5.453h.739l.5-1.376h2.4l.5,1.376h.766l-2.074-5.453Z" transform="translate(-62.394 -98.012)" fill="#c1a760"/>
  <g id="Group_3962" data-name="Group 3962">
    <g id="Group_3961" data-name="Group 3961" clip-path="url(#clip-path)">
      <path id="Path_1116" data-name="Path 1116" d="M167.991,216.471c1.491,0,2.363,1.2,2.363,2.82,0,1.655-.866,2.821-2.363,2.821s-2.361-1.166-2.361-2.821c0-1.617.871-2.82,2.361-2.82m0,4.952c1.132,0,1.617-1.045,1.617-2.133,0-1.108-.533-2.14-1.617-2.132-1.081-.008-1.615,1.023-1.615,2.132,0,1.087.481,2.133,1.615,2.133" transform="translate(-74.933 -97.934)" fill="#c1a760"/>
      <path id="Path_1117" data-name="Path 1117" d="M194.917,219.814,193,216.643h.823l1.46,2.443,1.427-2.443h.825l-1.913,3.171V222.1h-.7Z" transform="translate(-87.315 -98.012)" fill="#c1a760"/>
      <path id="Path_1118" data-name="Path 1118" d="M221.588,216.643h.735L224.4,222.1h-.767l-.5-1.377h-2.4l-.5,1.377h-.737Zm.346.734-.979,2.7h1.956Z" transform="translate(-99.301 -98.012)" fill="#c1a760"/>
      <path id="Path_1119" data-name="Path 1119" d="M247.683,216.643h1.16l1.54,4.529,1.509-4.529h1.159V222.1h-.7v-4.72h-.012l-1.624,4.72h-.688l-1.626-4.72h-.014v4.72h-.7Z" transform="translate(-112.055 -98.012)" fill="#c1a760"/>
      <path id="Path_1120" data-name="Path 1120" d="M278.815,216.643h.739l2.073,5.454h-.767l-.5-1.377h-2.4l-.5,1.377h-.738Zm.344.734-.977,2.7h1.954Z" transform="translate(-125.192 -98.012)" fill="#c1a760"/>
      <path id="Path_1121" data-name="Path 1121" d="M186.684,161.938v19.891h-3.27V160.118c0-2.4.618-4.155,1.983-5.387a9.2,9.2,0,0,1,5.721-2.249v4.141c-4.136-.519-4.434.979-4.434,5.317" transform="translate(-82.979 -68.985)" fill="#c1a760"/>
      <path id="Path_1122" data-name="Path 1122" d="M245.188,150.579v-3.407h-4.232v-7.837l-3.273,1.612v30.415c0,4.925,3.416,5.652,7.426,4.511v-3.131c-2.443.838-4.153.867-4.153-1.265v-20.9Z" transform="translate(-107.531 -63.037)" fill="#c1a760"/>
      <rect id="Rectangle_702" data-name="Rectangle 702" width="3.273" height="28.711" transform="translate(116.696 84.134)" fill="#c1a760"/>
      <path id="Path_1123" data-name="Path 1123" d="M118.372,158.146a4.436,4.436,0,0,0-3.117-1.9c-4.234,0-4.633,8.173-4.633,11.474,0,2.853.552,11.3,4.429,11.3,1.508,0,2.467-1.286,3.22-2.574h.1v4.531a5.811,5.811,0,0,1-3.724,1.457c-5.942,0-7.4-9.289-7.4-14.217,0-5.428,1.006-15.387,7.552-15.387a6.445,6.445,0,0,1,3.572,1.119Z" transform="translate(-48.52 -69.143)" fill="#c1a760"/>
      <path id="Path_1124" data-name="Path 1124" d="M144.254,168.39v.835c0,2.856.455,9.8,4.026,9.8,2.875,0,3.273-4.478,3.273-6.773h3.375c-.05,4.368-1.563,10.186-6.342,10.186-6.8,0-7.7-8.955-7.7-14.718,0-5.149,1.007-14.885,7.251-14.885,6.04,0,7,8.781,7,13.821v1.737Zm7.553-3.081-.05-.5c-.1-2.745-.2-8.565-3.624-8.565-3.126,0-3.828,6.493-3.828,9.066Z" transform="translate(-63.737 -69.143)" fill="#c1a760"/>
      <path id="Path_1125" data-name="Path 1125" d="M268.461,168.39v.835c0,2.856.455,9.8,4.026,9.8,2.873,0,3.274-4.478,3.274-6.773h3.373c-.05,4.368-1.563,10.186-6.342,10.186-6.8,0-7.7-8.955-7.7-14.718,0-5.149,1.008-14.885,7.251-14.885,6.041,0,7,8.781,7,13.821v1.737Zm7.554-3.081-.054-.5c-.1-2.745-.2-8.565-3.622-8.565-3.122,0-3.83,6.493-3.83,9.066Z" transform="translate(-119.929 -69.143)" fill="#c1a760"/>
      <rect id="Rectangle_703" data-name="Rectangle 703" width="3.272" height="28.709" transform="translate(22.645 84.134)" fill="#c1a760"/>
      <path id="Path_1126" data-name="Path 1126" d="M70.128,155.571a6.482,6.482,0,0,1,5.087-2.74c4.584,0,4.985,4.7,4.985,8.618v20.537H76.925V161.84c0-3.414-.2-6.045-2.919-6.045-3.724,0-3.879,4.531-3.879,7.554v18.637H66.857V153.277h3.271Z" transform="translate(-30.247 -69.143)" fill="#c1a760"/>
      <path id="Path_1127" data-name="Path 1127" d="M10.975,159.153h-.1c-.956-1.511-2.467-2.91-4.279-2.91-1.964,0-3.22,1.678-3.22,3.8,0,2.743,2.114,4.423,4.178,6.324,2.111,1.96,4.179,4.087,4.179,7.838,0,4.587-2.772,8.226-7.048,8.226A7.571,7.571,0,0,1,0,180.478v-4.255c1.256,1.453,2.617,2.8,4.579,2.8,2.269,0,3.776-1.958,3.776-4.366,0-2.853-2.062-4.756-4.178-6.826C2.116,165.813,0,163.575,0,160.162c0-4.311,2.568-7.331,6.443-7.331a7.042,7.042,0,0,1,4.532,1.846Z" transform="translate(0 -69.143)" fill="#c1a760"/>
      <path id="Path_1128" data-name="Path 1128" d="M137.3,82.985h-1.332L177.133,0h1.333Z" transform="translate(-61.513 0)" fill="#c1a760"/>
      <path id="Path_1129" data-name="Path 1129" d="M277.362,135.231l-3.864,7.794h1.33l3.867-7.794Z" transform="translate(-123.734 -61.18)" fill="#c1a760"/>
    </g>
  </g>
</svg>
