<svg xmlns="http://www.w3.org/2000/svg" width="349.461" height="29.167" viewBox="0 0 349.461 29.167">
  <g id="Group_94" data-name="Group 94" transform="translate(-64 -138.88)">
    <path id="Path_1087" data-name="Path 1087" d="M13.9-76.7a.708.708,0,0,1-.355-.118.734.734,0,0,1-.276-.513L7.3-101.528q-.039-.276-.237-.257t-.2.3L6.081-79.7a2.772,2.772,0,0,0,.355,1.677,1.959,1.959,0,0,0,1.381.73l.513.079q.513.039.513.474t-.592.434H2.608q-.592,0-.592-.434t.513-.474l.513-.079a1.925,1.925,0,0,0,1.4-.73A3.3,3.3,0,0,0,4.858-79.7l.789-22.418a1.5,1.5,0,0,0-.237-1.105,2.349,2.349,0,0,0-1.184-.434l-.908-.158q-.513-.118-.513-.474,0-.434.592-.434H8.134a1.394,1.394,0,0,1,1.5,1.184l4.776,19.695q.079.276.257.276t.217-.276l4.973-19.892a1.174,1.174,0,0,1,1.263-.987h4.657q.592,0,.592.434,0,.355-.513.474l-.908.158a2.211,2.211,0,0,0-1.105.434,1.5,1.5,0,0,0-.237,1.105l.789,23.207a1.946,1.946,0,0,0,.276,1.105,1.939,1.939,0,0,0,1.066.434l.908.158q.513.118.513.474,0,.434-.592.434H19.421q-.592,0-.592-.434,0-.355.513-.474l.908-.158a2.211,2.211,0,0,0,1.105-.434,1.5,1.5,0,0,0,.237-1.105l-.671-22.576q0-.276-.178-.3t-.257.217l-6,24.233a.781.781,0,0,1-.257.513A.611.611,0,0,1,13.9-76.7Zm16.064.395q-.592,0-.592-.395t.553-.513l.592-.118A1.747,1.747,0,0,0,31.7-78.1a5.823,5.823,0,0,0,.671-1.717l6.118-24.668a.781.781,0,0,1,.257-.513.612.612,0,0,1,.335-.118.665.665,0,0,1,.375.118.781.781,0,0,1,.257.513l6.236,25.023a4.134,4.134,0,0,0,.631,1.539,1.869,1.869,0,0,0,1.105.592l.592.118q.553.118.553.513t-.592.395H41.484q-.553,0-.553-.434t.671-.474l.75-.079a1,1,0,0,0,.849-.434,2,2,0,0,0-.02-1.224l-1.5-6.118a1.207,1.207,0,0,0-1.3-1.026H36.235a1.241,1.241,0,0,0-1.3,1.026l-1.342,5.289q-.592,2.25,1.184,2.486l.592.079q.671.118.671.474,0,.434-.553.434ZM36.116-87.28h4.341q.631,0,.513-.671L38.445-98.529h-.2L35.6-87.951Q35.485-87.28,36.116-87.28ZM67.849-75.953q-3.434,0-4.381-4.5l-.908-4.381a14.448,14.448,0,0,0-.967-3.236,2.9,2.9,0,0,0-1.46-1.5,6.658,6.658,0,0,0-2.546-.395,1.219,1.219,0,0,0-.868.3.961.961,0,0,0-.316.73v9.867a1.532,1.532,0,0,0,.316,1.125,3.081,3.081,0,0,0,1.421.493l1.46.237q.434.079.434.434,0,.474-.592.474H51.43q-.592,0-.592-.434,0-.355.513-.474l.908-.158a2.071,2.071,0,0,0,1.085-.434,1.691,1.691,0,0,0,.257-1.105V-102.12a1.691,1.691,0,0,0-.257-1.105,2.071,2.071,0,0,0-1.085-.434l-.908-.158q-.513-.118-.513-.474,0-.434.592-.434h8.012a9.143,9.143,0,0,1,4.144.908,7.029,7.029,0,0,1,2.842,2.506,6.68,6.68,0,0,1,1.026,3.69,7.265,7.265,0,0,1-1.5,4.48,8.117,8.117,0,0,1-3.789,2.822q-.276.079-.3.257t.257.3a4.853,4.853,0,0,1,1.993,1.658,8.155,8.155,0,0,1,1.125,2.842l.868,4.026a8.66,8.66,0,0,0,1.026,2.921,1.761,1.761,0,0,0,1.5.868,1.583,1.583,0,0,0,.572-.1,3.269,3.269,0,0,0,.651-.375.664.664,0,0,1,.592-.1.4.4,0,0,1,.276.414,1.4,1.4,0,0,1-.868,1.164A4,4,0,0,1,67.849-75.953Zm-8.8-15a4.813,4.813,0,0,0,4.065-1.8,7.663,7.663,0,0,0,1.381-4.8,6.25,6.25,0,0,0-1.6-4.559,5.866,5.866,0,0,0-4.4-1.638q-2.092,0-2.092,1.579v9.038Q56.4-90.951,59.047-90.951ZM73.572-76.308q-.592,0-.592-.434,0-.355.513-.474l.908-.158a2.071,2.071,0,0,0,1.085-.434,1.691,1.691,0,0,0,.257-1.105V-102.12a1.691,1.691,0,0,0-.257-1.105,2.07,2.07,0,0,0-1.085-.434l-.908-.158q-.513-.118-.513-.474,0-.434.592-.434h7.144q.592,0,.592.434,0,.355-.513.474l-.908.158a2.071,2.071,0,0,0-1.085.434,1.691,1.691,0,0,0-.257,1.105v23.207a1.691,1.691,0,0,0,.257,1.105,2.071,2.071,0,0,0,1.085.434l.908.158q.513.118.513.474,0,.434-.592.434Zm10.1,0q-.592,0-.592-.395t.553-.513l.592-.118a1.747,1.747,0,0,0,1.184-.77,5.824,5.824,0,0,0,.671-1.717L92.2-104.489a.781.781,0,0,1,.257-.513.612.612,0,0,1,.335-.118.665.665,0,0,1,.375.118.781.781,0,0,1,.257.513L99.66-79.466a4.134,4.134,0,0,0,.631,1.539,1.869,1.869,0,0,0,1.105.592l.592.118q.553.118.553.513t-.592.395H95.2q-.553,0-.553-.434t.671-.474l.75-.079a1,1,0,0,0,.849-.434,2,2,0,0,0-.02-1.224L95.4-85.07A1.207,1.207,0,0,0,94.1-86.1H89.951a1.241,1.241,0,0,0-1.3,1.026l-1.342,5.289q-.592,2.25,1.184,2.486l.592.079q.671.118.671.474,0,.434-.553.434ZM89.833-87.28h4.341q.631,0,.513-.671L92.161-98.529h-.2L89.32-87.951Q89.2-87.28,89.833-87.28Zm24.51,11.327a8.24,8.24,0,0,1-5.407-1.816,11.157,11.157,0,0,1-3.355-5.111,23.805,23.805,0,0,1-1.145-7.795,19.839,19.839,0,0,1,1.342-7.6,11.875,11.875,0,0,1,3.69-5.052,8.629,8.629,0,0,1,5.387-1.8,12.294,12.294,0,0,1,2.8.3,10.093,10.093,0,0,1,2.21.77.889.889,0,0,1,.513.829l.118,6q0,.671-.474.671-.434,0-.553-.513l-.316-1.184a11.349,11.349,0,0,0-1.973-4.5,3.888,3.888,0,0,0-3.039-1.224q-2.881,0-4.756,3.414t-1.875,9.887q0,6.67,1.914,10.163t4.914,3.493a3.67,3.67,0,0,0,2.447-.71,3.38,3.38,0,0,0,.829-2.644v-8.644a1.878,1.878,0,0,0-.257-1.145,1.589,1.589,0,0,0-1.085-.395l-1.539-.158q-.513-.039-.513-.474t.592-.434h7.223q.592,0,.592.474,0,.355-.434.434l-.592.079q-.868.118-1.026.474a3.17,3.17,0,0,0-.158,1.184v10.7a.978.978,0,0,1-.237.691,3.247,3.247,0,0,1-.829.572,10.225,10.225,0,0,1-2.171.77A12.165,12.165,0,0,1,114.342-75.953Zm12.235-.355q-.592,0-.592-.434,0-.355.513-.474l.908-.158a2.071,2.071,0,0,0,1.085-.434,1.691,1.691,0,0,0,.257-1.105V-102.12a1.691,1.691,0,0,0-.257-1.105,2.07,2.07,0,0,0-1.085-.434l-.908-.158q-.513-.118-.513-.474,0-.434.592-.434h13.261a.885.885,0,0,1,.987.908l.316,6.552q.079.671-.513.671a.521.521,0,0,1-.553-.513l-.237-1.46a6.642,6.642,0,0,0-1.776-3.927,5.249,5.249,0,0,0-3.71-1.243,3.849,3.849,0,0,0-2.19.454,1.868,1.868,0,0,0-.612,1.6v9.512a.488.488,0,0,0,.553.553h1.973a2.034,2.034,0,0,0,2.131-1.855l.395-1.973q.158-.592.671-.513.434.079.434.671v8.88q0,.592-.434.671-.513.079-.671-.513l-.395-1.934a3.355,3.355,0,0,0-.77-1.816,2.054,2.054,0,0,0-1.4-.434H132.1a.488.488,0,0,0-.553.553v9.907a2.58,2.58,0,0,0,.73,2.052,4.173,4.173,0,0,0,2.664.632,5.63,5.63,0,0,0,3.375-1.006,5.864,5.864,0,0,0,1.954-3.769l.474-2.329a.572.572,0,0,1,.592-.513q.553,0,.474.671l-.395,7.025a.885.885,0,0,1-.987.908Z" transform="translate(271.639 244)" fill="#c1a760"/>
    <line id="Line_74" data-name="Line 74" x1="14.252" y2="27.271" transform="translate(256.662 140.009)" fill="none" stroke="#b19d7f" stroke-linecap="round" stroke-width="1"/>
    <path id="Path_1086" data-name="Path 1086" d="M15.469-75.953a7.768,7.768,0,0,1-5.111-1.816A11.642,11.642,0,0,1,6.964-82.88a22.729,22.729,0,0,1-1.2-7.795,20.1,20.1,0,0,1,1.322-7.6,12.214,12.214,0,0,1,3.552-5.052,7.707,7.707,0,0,1,4.953-1.8,12.166,12.166,0,0,1,2.842.3,10.225,10.225,0,0,1,2.171.77.9.9,0,0,1,.474.829l.118,6q0,.671-.474.671-.434,0-.553-.513l-.395-1.46a10.615,10.615,0,0,0-1.914-4.263,3.391,3.391,0,0,0-2.585-1.184q-2.763,0-4.6,3.414T8.839-90.675a25.856,25.856,0,0,0,.928,7.459,11.3,11.3,0,0,0,2.408,4.578A4.344,4.344,0,0,0,15.311-77.1,3.831,3.831,0,0,0,18.173-78.2a9.425,9.425,0,0,0,1.835-4.263l.474-1.934q.118-.592.631-.513.434.079.434.671l-.158,6.394a.889.889,0,0,1-.513.829,10.037,10.037,0,0,1-2.23.77A14.409,14.409,0,0,1,15.469-75.953Zm11.367-.355q-.592,0-.592-.434,0-.355.513-.474l.908-.158a2.071,2.071,0,0,0,1.085-.434,1.691,1.691,0,0,0,.257-1.105V-102.12a1.691,1.691,0,0,0-.257-1.105,2.07,2.07,0,0,0-1.085-.434l-.908-.158q-.513-.118-.513-.474,0-.434.592-.434h7.223q.592,0,.592.474,0,.355-.434.434l-1.066.158a1.714,1.714,0,0,0-1.085.434,1.878,1.878,0,0,0-.257,1.145v22.1a2.445,2.445,0,0,0,.809,2.052,3.2,3.2,0,0,0,2.033.632,5.172,5.172,0,0,0,1.875-.375,4.093,4.093,0,0,0,1.756-1.421,7.492,7.492,0,0,0,1.184-3.059l.513-2.644a.572.572,0,0,1,.592-.513q.553,0,.474.671l-.474,7.42a.885.885,0,0,1-.987.908Zm17.208,0q-.592,0-.592-.395T44-77.216l.592-.118a1.747,1.747,0,0,0,1.184-.77,5.823,5.823,0,0,0,.671-1.717l6.118-24.668a.781.781,0,0,1,.257-.513.611.611,0,0,1,.335-.118.665.665,0,0,1,.375.118.781.781,0,0,1,.257.513l6.236,25.023a4.134,4.134,0,0,0,.631,1.539,1.869,1.869,0,0,0,1.105.592l.592.118q.553.118.553.513t-.592.395H55.569q-.553,0-.553-.434t.671-.474l.75-.079a1,1,0,0,0,.849-.434,2,2,0,0,0-.02-1.224l-1.5-6.118a1.207,1.207,0,0,0-1.3-1.026H50.32a1.241,1.241,0,0,0-1.3,1.026l-1.342,5.289q-.592,2.25,1.184,2.486l.592.079q.671.118.671.474,0,.434-.553.434ZM50.2-87.28h4.341q.631,0,.513-.671L52.53-98.529h-.2L49.688-87.951Q49.57-87.28,50.2-87.28ZM71.356-75.953a10.986,10.986,0,0,1-1.756-.158,16.877,16.877,0,0,1-1.816-.395,5.773,5.773,0,0,1-1.322-.513,1.392,1.392,0,0,1-.414-.335,1.022,1.022,0,0,1-.138-.612l-.2-6.2q0-.789.513-.789.434,0,.592.71l.355,1.5Q68.514-77.1,72.185-77.1a3.97,3.97,0,0,0,3.138-1.322,5.461,5.461,0,0,0,1.164-3.73,8.311,8.311,0,0,0-1.2-4.342,14.452,14.452,0,0,0-3.848-3.986,17.434,17.434,0,0,1-4.263-4.045,7.225,7.225,0,0,1-1.342-4.164,5.873,5.873,0,0,1,2.033-4.677,7.654,7.654,0,0,1,5.19-1.756,9.4,9.4,0,0,1,2.289.276,5.256,5.256,0,0,1,1.816.789,1.391,1.391,0,0,1,.375.355.876.876,0,0,1,.138.513l.118,5.96q0,.671-.513.671-.355,0-.513-.553l-.276-.987a16.814,16.814,0,0,0-1.8-4.44,3,3,0,0,0-2.664-1.4,3.477,3.477,0,0,0-2.7,1.105,4.466,4.466,0,0,0-1.006,3.118,5.464,5.464,0,0,0,1.105,3.236,21.168,21.168,0,0,0,3.868,3.749,19.122,19.122,0,0,1,4.322,4.638,8.973,8.973,0,0,1,1.362,4.756,7.419,7.419,0,0,1-.987,3.868,6.906,6.906,0,0,1-2.7,2.585A8.131,8.131,0,0,1,71.356-75.953Zm18.432,0a10.985,10.985,0,0,1-1.756-.158,16.878,16.878,0,0,1-1.816-.395,5.773,5.773,0,0,1-1.322-.513,1.392,1.392,0,0,1-.414-.335,1.022,1.022,0,0,1-.138-.612l-.2-6.2q0-.789.513-.789.434,0,.592.71l.355,1.5Q86.946-77.1,90.617-77.1a3.97,3.97,0,0,0,3.138-1.322,5.461,5.461,0,0,0,1.164-3.73,8.311,8.311,0,0,0-1.2-4.342,14.452,14.452,0,0,0-3.848-3.986A17.434,17.434,0,0,1,85.6-94.523a7.224,7.224,0,0,1-1.342-4.164,5.873,5.873,0,0,1,2.033-4.677,7.654,7.654,0,0,1,5.19-1.756,9.4,9.4,0,0,1,2.289.276,5.256,5.256,0,0,1,1.816.789,1.392,1.392,0,0,1,.375.355.876.876,0,0,1,.138.513l.118,5.96q0,.671-.513.671-.355,0-.513-.553l-.276-.987a16.815,16.815,0,0,0-1.8-4.44,3,3,0,0,0-2.664-1.4,3.477,3.477,0,0,0-2.7,1.105,4.466,4.466,0,0,0-1.006,3.118,5.464,5.464,0,0,0,1.105,3.236,21.169,21.169,0,0,0,3.868,3.749,19.122,19.122,0,0,1,4.322,4.638,8.973,8.973,0,0,1,1.362,4.756,7.419,7.419,0,0,1-.987,3.868,6.906,6.906,0,0,1-2.7,2.585A8.131,8.131,0,0,1,89.788-75.953Z" transform="translate(156.516 244)" fill="#c1a760"/>
    <line id="Line_50" data-name="Line 50" x1="14.252" y2="27.271" transform="translate(142.414 140.009)" fill="none" stroke="#b19d7f" stroke-linecap="round" stroke-width="1"/>
    <path id="Path_1085" data-name="Path 1085" d="M3.328-76.308q-.592,0-.592-.434,0-.355.513-.474l.908-.158a2.071,2.071,0,0,0,1.085-.434A1.691,1.691,0,0,0,5.5-78.913V-102.12a1.691,1.691,0,0,0-.257-1.105,2.07,2.07,0,0,0-1.085-.434l-.908-.158q-.513-.118-.513-.474,0-.434.592-.434h7.223q.592,0,.592.474,0,.355-.434.434l-1.066.158a1.714,1.714,0,0,0-1.085.434,1.878,1.878,0,0,0-.257,1.145v9.907a.488.488,0,0,0,.553.553h7.815a.488.488,0,0,0,.553-.553v-9.907a1.878,1.878,0,0,0-.257-1.145,1.714,1.714,0,0,0-1.085-.434l-1.066-.158q-.434-.079-.434-.434,0-.474.592-.474h7.223q.592,0,.592.434,0,.355-.513.474l-.908.158a2.071,2.071,0,0,0-1.085.434,1.691,1.691,0,0,0-.257,1.105v23.207a1.691,1.691,0,0,0,.257,1.105,2.071,2.071,0,0,0,1.085.434l.908.158q.513.118.513.474,0,.434-.592.434H14.971q-.592,0-.592-.474,0-.355.434-.434l1.066-.158a1.714,1.714,0,0,0,1.085-.434,1.878,1.878,0,0,0,.257-1.145V-89.885a.488.488,0,0,0-.553-.553H8.854a.488.488,0,0,0-.553.553v10.933a1.878,1.878,0,0,0,.257,1.145,1.714,1.714,0,0,0,1.085.434l1.066.158q.434.079.434.434,0,.474-.592.474Zm23.918,0q-.592,0-.592-.434,0-.355.513-.474l.908-.158a2.071,2.071,0,0,0,1.085-.434,1.691,1.691,0,0,0,.257-1.105V-102.12a1.691,1.691,0,0,0-.257-1.105,2.07,2.07,0,0,0-1.085-.434l-.908-.158q-.513-.118-.513-.474,0-.434.592-.434h7.144q.592,0,.592.434,0,.355-.513.474l-.908.158a2.07,2.07,0,0,0-1.085.434,1.691,1.691,0,0,0-.257,1.105v23.207a1.691,1.691,0,0,0,.257,1.105,2.071,2.071,0,0,0,1.085.434l.908.158q.513.118.513.474,0,.434-.592.434Zm22.339.355a8.24,8.24,0,0,1-5.407-1.816,11.157,11.157,0,0,1-3.355-5.111,23.8,23.8,0,0,1-1.145-7.795,19.839,19.839,0,0,1,1.342-7.6,11.875,11.875,0,0,1,3.69-5.052,8.629,8.629,0,0,1,5.387-1.8,12.294,12.294,0,0,1,2.8.3,10.092,10.092,0,0,1,2.21.77.889.889,0,0,1,.513.829l.118,6q0,.671-.474.671-.434,0-.553-.513L54.4-98.253a11.348,11.348,0,0,0-1.973-4.5,3.888,3.888,0,0,0-3.039-1.224q-2.881,0-4.756,3.414t-1.875,9.887q0,6.67,1.914,10.163t4.914,3.493a3.67,3.67,0,0,0,2.447-.71,3.38,3.38,0,0,0,.829-2.644v-8.644a1.878,1.878,0,0,0-.257-1.145,1.589,1.589,0,0,0-1.085-.395l-1.539-.158q-.513-.039-.513-.474t.592-.434h7.223q.592,0,.592.474,0,.355-.434.434l-.592.079q-.868.118-1.026.474a3.171,3.171,0,0,0-.158,1.184v10.7a.978.978,0,0,1-.237.691,3.247,3.247,0,0,1-.829.572,10.224,10.224,0,0,1-2.171.77A12.165,12.165,0,0,1,49.585-75.953Zm12.235-.355q-.592,0-.592-.434,0-.355.513-.474l.908-.158a2.071,2.071,0,0,0,1.085-.434,1.691,1.691,0,0,0,.257-1.105V-102.12a1.691,1.691,0,0,0-.257-1.105,2.07,2.07,0,0,0-1.085-.434l-.908-.158q-.513-.118-.513-.474,0-.434.592-.434h7.223q.592,0,.592.474,0,.355-.434.434l-1.066.158a1.714,1.714,0,0,0-1.085.434,1.878,1.878,0,0,0-.257,1.145v9.907a.488.488,0,0,0,.553.553H75.16a.488.488,0,0,0,.553-.553v-9.907a1.878,1.878,0,0,0-.257-1.145,1.713,1.713,0,0,0-1.085-.434l-1.066-.158q-.434-.079-.434-.434,0-.474.592-.474h7.223q.592,0,.592.434,0,.355-.513.474l-.908.158a2.07,2.07,0,0,0-1.085.434,1.691,1.691,0,0,0-.257,1.105v23.207a1.691,1.691,0,0,0,.257,1.105,2.071,2.071,0,0,0,1.085.434l.908.158q.513.118.513.474,0,.434-.592.434H73.463q-.592,0-.592-.474,0-.355.434-.434l1.066-.158a1.714,1.714,0,0,0,1.085-.434,1.878,1.878,0,0,0,.257-1.145V-89.885a.488.488,0,0,0-.553-.553H67.345a.488.488,0,0,0-.553.553v10.933a1.878,1.878,0,0,0,.257,1.145,1.714,1.714,0,0,0,1.085.434l1.066.158q.434.079.434.434,0,.474-.592.474Z" transform="translate(61.264 244)" fill="#c1a760"/>
  </g>
</svg>
