<svg xmlns="http://www.w3.org/2000/svg" xmlns:xlink="http://www.w3.org/1999/xlink" width="49.212" height="46.89" viewBox="0 0 49.212 46.89">
  <defs>
    <clipPath id="clip-path">
      <rect id="Rectangle_689" data-name="Rectangle 689" width="49.212" height="46.89" fill="#628953"/>
    </clipPath>
  </defs>
  <g id="Group_3947" data-name="Group 3947" clip-path="url(#clip-path)">
    <path id="Subtraction_12" data-name="Subtraction 12" d="M23.254,46.89h0a.819.819,0,0,1-.661-.256,1.8,1.8,0,0,1-.127-1.363l.01-.057c.063-.37.351-2.107.351-2.107a4.694,4.694,0,0,0-.079-2.225c-.272-.674-1.329-1.032-2.168-1.214A26.372,26.372,0,0,1,5.855,32.933,17.939,17.939,0,0,1,0,19.967C0,8.957,11.039,0,24.606,0S49.213,8.957,49.213,19.967c0,4.376-1.725,8.394-5.274,12.285a62.43,62.43,0,0,1-10.617,8.957,65.889,65.889,0,0,1-8.716,5.33A3.715,3.715,0,0,1,23.254,46.89ZM34.122,14.647a.478.478,0,0,0-.333.137l-.013.013a.48.48,0,0,0-.134.331v10.72a.471.471,0,0,0,.135.331l.007.006.006.008a.481.481,0,0,0,.331.133h6.9a.48.48,0,0,0,.479-.479V24.121a.48.48,0,0,0-.479-.479H36.329V21.829h4.689a.48.48,0,0,0,.479-.479V19.623a.48.48,0,0,0-.479-.479H36.329V17.333h4.689a.48.48,0,0,0,.479-.479V15.127a.48.48,0,0,0-.479-.481h-6.9ZM24.449,19.48l0,0,4.915,6.639a.532.532,0,0,0,.122.119.345.345,0,0,0,.034.021l.015.008.008,0,.014.007.024.01.014,0,.033.011a.541.541,0,0,0,.13.018h1.725a.48.48,0,0,0,.479-.479V15.126a.479.479,0,0,0-.479-.477H29.761a.48.48,0,0,0-.481.477V21.5l-4.912-6.635a.334.334,0,0,0-.028-.036l-.01-.012a.288.288,0,0,0-.032-.032l-.01-.008-.02-.018-.011-.009-.022-.015-.009-.006-.008-.005-.019-.011-.014-.008-.014-.006-.028-.011-.016-.006-.015,0-.014,0-.016,0-.021-.005-.017,0-.01,0v0l-.013,0-.013,0H22.243a.479.479,0,0,0-.479.477V25.847a.48.48,0,0,0,.479.479H23.97a.48.48,0,0,0,.479-.479V19.48Zm-6.568-4.832a.479.479,0,0,0-.479.477V25.847a.48.48,0,0,0,.479.479h1.727a.48.48,0,0,0,.479-.479V15.126a.479.479,0,0,0-.479-.477Zm-9.329,0a.48.48,0,0,0-.479.481v10.72a.475.475,0,0,0,.134.331l.006.006.008.008a.479.479,0,0,0,.329.133h6.9a.48.48,0,0,0,.479-.479V24.121a.48.48,0,0,0-.479-.479H10.757V15.127a.48.48,0,0,0-.479-.481Z" transform="translate(-0.001 0)" fill="#70a55b" stroke="rgba(0,0,0,0)" stroke-miterlimit="10" stroke-width="1"/>
  </g>
</svg>
