<svg xmlns="http://www.w3.org/2000/svg" xmlns:xlink="http://www.w3.org/1999/xlink" width="24" height="24" viewBox="0 0 24 24">
  <defs>
    <clipPath id="clip-path">
      <rect id="Rectangle_404" data-name="Rectangle 404" width="16.587" height="20" fill="#333"/>
    </clipPath>
  </defs>
  <g id="Group_4064" data-name="Group 4064" transform="translate(-998.568)">
    <rect id="Rectangle_719" data-name="Rectangle 719" width="24" height="24" transform="translate(998.568)" fill="none"/>
    <g id="Group_2695" data-name="Group 2695" transform="translate(1002.275 2)">
      <g id="Group_2695-2" data-name="Group 2695" clip-path="url(#clip-path)">
        <path id="Path_812" data-name="Path 812" d="M11.517,20a4.235,4.235,0,0,1-1.844-.414,23.488,23.488,0,0,1-5.689-5.35A23.265,23.265,0,0,1,.468,7.841C.229,7.086-.474,4.5.506,2.934A9.9,9.9,0,0,1,4.117.148l.292-.13L4.524,0a.358.358,0,0,1,.3.169L7.393,4.411A.925.925,0,0,1,7.164,5.7C6.5,6.111,5.079,7,4.912,7.125c-.022.016-.054.075-.011.282.05.134,1.231,2.3,1.7,2.947l.2.284a25.831,25.831,0,0,0,2.864,3.7.469.469,0,0,0,.174.034.34.34,0,0,0,.169-.041l1.961-1.621a1.108,1.108,0,0,1,.587-.175.89.89,0,0,1,.454.116l.02.012.069.063,3.4,4.1a.354.354,0,0,1-.024.477,13.675,13.675,0,0,1-3.154,2.289A4.236,4.236,0,0,1,11.517,20M4.384.8A9.28,9.28,0,0,0,1.1,3.309C.263,4.65.988,7.143,1.142,7.629a22.694,22.694,0,0,0,3.4,6.18,22.641,22.641,0,0,0,5.442,5.146,3.548,3.548,0,0,0,3.038,0,12.615,12.615,0,0,0,2.723-1.931l-3.162-3.8a.737.737,0,0,0-.213.072L10.43,14.9a1.039,1.039,0,0,1-.591.18,1.156,1.156,0,0,1-.465-.1c-.285-.122-.891-.8-3.143-3.929l-.2-.282a28.5,28.5,0,0,1-1.82-3.224.908.908,0,0,1,.279-.986c.18-.135,1.316-.845,2.236-1.418.084-.053.188-.14.058-.381Z" transform="translate(0 0.001)" fill="#333"/>
      </g>
    </g>
  </g>
</svg>
