<svg xmlns="http://www.w3.org/2000/svg" xmlns:xlink="http://www.w3.org/1999/xlink" width="72" height="72" viewBox="0 0 72 72">
  <defs>
    <clipPath id="clip-path">
      <rect id="Rectangle_408" data-name="Rectangle 408" width="18.612" height="28" fill="#333"/>
    </clipPath>
  </defs>
  <g id="Group_3756" data-name="Group 3756" transform="translate(-7 -7)">
    <circle id="Ellipse_42" data-name="Ellipse 42" cx="36" cy="36" r="36" transform="translate(7 7)" fill="#f4f2f0"/>
    <g id="Group_2699" data-name="Group 2699" transform="translate(33.694 30.404)">
      <g id="Group_2699-2" data-name="Group 2699" transform="translate(0 0)" clip-path="url(#clip-path)">
        <path id="Path_823" data-name="Path 823" d="M16.762,0a2.134,2.134,0,0,0-1.385.617l-6.069,5.5L3.209.593A2.094,2.094,0,0,0,1.849,0,1.883,1.883,0,0,0,0,1.966V19.1a2.185,2.185,0,0,0,.726,1.679c.186.186,4.473,3.865,7.681,6.616l.56.482c.017.014.041.009.057.021s.038.042.063.054L9.259,28h.048l.176-.029.042-.02c.029-.012.042-.041.066-.057s.041-.008.057-.021l.278-.239c5.139-4.405,7.816-6.712,7.962-6.856a2.173,2.173,0,0,0,.725-1.679V1.956A1.878,1.878,0,0,0,16.762,0M1.463,20.036a1.142,1.142,0,0,1-.419-.937V1.98c.006-.156.068-.934.8-.935.221,0,.366.1.684.347l6.25,5.661V26.342c-3.35-2.874-7.153-6.142-7.32-6.305" transform="translate(0 0)" fill="#333"/>
      </g>
    </g>
  </g>
</svg>
