<svg xmlns="http://www.w3.org/2000/svg" xmlns:xlink="http://www.w3.org/1999/xlink" width="72" height="72" viewBox="0 0 72 72">
  <defs>
    <clipPath id="clip-path">
      <rect id="Rectangle_407" data-name="Rectangle 407" width="29.553" height="28" fill="#333"/>
    </clipPath>
  </defs>
  <g id="Group_4577" data-name="Group 4577" transform="translate(-7 -7)">
    <circle id="Ellipse_42" data-name="Ellipse 42" cx="36" cy="36" r="36" transform="translate(7 7)" fill="#f4f2f0"/>
    <g id="Group_2700" data-name="Group 2700" transform="translate(28.224 29.999)">
      <g id="Group_2698" data-name="Group 2698" transform="translate(0 0)" clip-path="url(#clip-path)">
        <path id="Path_821" data-name="Path 821" d="M14.777,28a.537.537,0,0,1-.536-.536c0-2.84-3.782-3.023-3.944-3.031H.537A.537.537,0,0,1,0,23.9V.536A.537.537,0,0,1,.537,0H11.031c4.233,0,4.283,3.707,4.283,3.745V27.464a.537.537,0,0,1-.537.536m-4.458-4.638a6.237,6.237,0,0,1,3.922,1.515V3.745c0-.271-.123-2.674-3.21-2.674H1.073v22.29Z" transform="translate(0 -0.001)" fill="#333"/>
        <path id="Path_822" data-name="Path 822" d="M9.787,28a.536.536,0,0,1-.536-.536V3.745C9.251,3.707,9.3,0,13.532,0h10.5a.536.536,0,0,1,.536.536V23.9a.536.536,0,0,1-.536.536H14.245c-.151.008-3.921.2-3.921,3.031A.537.537,0,0,1,9.787,28M13.532,1.071c-3.156,0-3.208,2.566-3.208,2.675V24.875a6.2,6.2,0,0,1,3.9-1.513h9.269V1.071Z" transform="translate(4.99 -0.001)" fill="#333"/>
      </g>
    </g>
  </g>
</svg>
