<svg xmlns="http://www.w3.org/2000/svg" width="43" height="43" viewBox="0 0 43 43">
  <path id="Subtraction_6" data-name="Subtraction 6" d="M21.5,43A21.506,21.506,0,0,1,13.131,1.69,21.506,21.506,0,0,1,29.869,41.311,21.364,21.364,0,0,1,21.5,43ZM17.19,28.82a.4.4,0,0,0-.1.014c-1.594.431-2.436,1.067-2.436,1.84C14.649,32.2,17.94,33,21.191,33s6.542-.8,6.542-2.325c0-.772-.842-1.409-2.436-1.84a.4.4,0,0,0-.49.283.4.4,0,0,0,.282.49c1.268.343,1.845.794,1.845,1.067,0,.622-2.237,1.526-5.742,1.526s-5.743-.9-5.743-1.526c0-.274.578-.724,1.846-1.067a.4.4,0,0,0-.1-.786ZM21.245,10A7.25,7.25,0,0,0,14,17.233a6.565,6.565,0,0,0,1.039,3.535l6.206,9.68,6.2-9.68a6.565,6.565,0,0,0,1.04-3.535A7.249,7.249,0,0,0,21.245,10Zm0,10.038A2.942,2.942,0,1,1,24.188,17.1,2.946,2.946,0,0,1,21.245,20.038Z" transform="translate(0 0)" fill="#fff"/>
</svg>
