<svg xmlns="http://www.w3.org/2000/svg" width="43" height="43" viewBox="0 0 43 43">
  <path id="Subtraction_5" data-name="Subtraction 5" d="M21.5,43A21.506,21.506,0,0,1,13.131,1.69,21.506,21.506,0,0,1,29.869,41.311,21.364,21.364,0,0,1,21.5,43ZM16.98,10l-.31.138c-.03.014-3.042,1.432-4.131,3.167-1.1,1.759-.194,4.9,0,5.509a27.769,27.769,0,0,0,4.131,7.505,27.594,27.594,0,0,0,6.646,6.267,4.644,4.644,0,0,0,3.992,0,16.276,16.276,0,0,0,3.65-2.651l-4.063-4.889a.72.72,0,0,0-.342-.082.817.817,0,0,0-.415.117l-2.376,1.962a.821.821,0,0,1-.434.117.992.992,0,0,1-.392-.084c-.428-.183-2.707-3.342-3.564-4.532l-.257-.356a36.926,36.926,0,0,1-2.1-3.684.734.734,0,0,1,.173-.757c.273-.205,2.7-1.707,2.72-1.722a.69.69,0,0,0,.138-.965Z" transform="translate(0 0)" fill="#fff"/>
</svg>
