<svg id="Group_2614" data-name="Group 2614" xmlns="http://www.w3.org/2000/svg" xmlns:xlink="http://www.w3.org/1999/xlink" width="116.99" height="82.145" viewBox="0 0 116.99 82.145">
  <defs>
    <clipPath id="clip-path">
      <rect id="Rectangle_357" data-name="Rectangle 357" width="116.99" height="82.145" fill="#b7963e"/>
    </clipPath>
  </defs>
  <g id="Group_2613" data-name="Group 2613" transform="translate(0 0)" clip-path="url(#clip-path)">
    <path id="Path_757" data-name="Path 757" d="M58.5,38.181a1.835,1.835,0,0,1-.736-.154c-.612-.271-1.212-.558-1.783-.851a30.551,30.551,0,0,1-7.065-4.97A.8.8,0,0,1,50,31.046a28.91,28.91,0,0,0,6.7,4.712c.546.281,1.117.554,1.7.812a.227.227,0,0,0,.186,0c.581-.257,1.153-.529,1.7-.81,5.011-2.576,12.961-9.29,12.961-16.341,0-4.771-3.614-8.652-8.056-8.652a7.83,7.83,0,0,0-6.078,2.976.825.825,0,0,1-1.238,0A7.832,7.832,0,0,0,51.8,10.766c-4.442,0-8.056,3.881-8.056,8.652a12.9,12.9,0,0,0,1.711,5.772.8.8,0,1,1-1.4.751,14.484,14.484,0,0,1-1.9-6.523c0-5.649,4.328-10.244,9.648-10.244a9.35,9.35,0,0,1,6.7,2.87,9.351,9.351,0,0,1,6.7-2.87c5.32,0,9.647,4.595,9.647,10.244,0,5.292-4.749,13.091-13.825,17.757-.572.294-1.172.581-1.782.85a1.823,1.823,0,0,1-.737.155m43.613-.038a8.834,8.834,0,0,0,4.206-10.677.8.8,0,0,0-.952-.485l-9.17,2.487A.8.8,0,1,0,96.609,31l8.414-2.282a7.092,7.092,0,0,1-3.711,8.042.8.8,0,0,0,.8,1.378M78.687,47.727l.5-2.3A17.469,17.469,0,0,1,89.362,33.144a.8.8,0,0,0-.627-1.464,19.062,19.062,0,0,0-11.1,13.407l-.5,2.3a.8.8,0,0,0,.607.949.848.848,0,0,0,.172.018.8.8,0,0,0,.776-.625M108.2,81.179a16.716,16.716,0,0,0,4.08-11.223,2.994,2.994,0,0,0-2.954-3.033h-.091l-10.3.206a.8.8,0,0,0-.781.812.787.787,0,0,0,.812.78l10.348-.206a1.4,1.4,0,0,1,1.375,1.418,15.135,15.135,0,0,1-3.663,10.174,1.388,1.388,0,0,1-1.744.244l-11-6.666a.8.8,0,0,0-.825,1.362l11,6.664a2.982,2.982,0,0,0,3.746-.532M98.554,70.625a2.989,2.989,0,0,0-.384-4.21,2.772,2.772,0,0,0-.376-.267l-3.189-1.9a.8.8,0,1,0-.817,1.367l3.19,1.9a1.425,1.425,0,0,1,.173.123,1.4,1.4,0,0,1,.179,1.972,15.886,15.886,0,0,1-27.934-12.62.8.8,0,0,0-.466-.855,5.452,5.452,0,0,1-3.185-6.064c.54-2.791,3.211-4.57,6.518-4.328,3.492.258,6.859,4.427,8.68,7.92a.8.8,0,1,0,1.412-.737c-2.108-4.039-5.835-8.464-9.975-8.77-4.125-.3-7.5,2-8.2,5.612a7.031,7.031,0,0,0,3.559,7.557A17.5,17.5,0,0,0,82.332,76.749a17.269,17.269,0,0,0,2.723.215,17.559,17.559,0,0,0,13.5-6.34M86.514,66.25c7.63-.217,12.742-1.808,15.194-4.727a5.757,5.757,0,0,0,1.4-3.193c3.385-.978,5.726-2.676,6.964-5.05a9.692,9.692,0,0,0,.677-6.641,8.819,8.819,0,0,0,6.232-8.844.8.8,0,0,0-.778-.732l-14.631-.284a18.989,18.989,0,0,0-17.058,9.89L75.131,63.819a.8.8,0,0,0,1.4.763L85.91,47.431a17.409,17.409,0,0,1,15.631-9.062l13.848.269a7.093,7.093,0,0,1-5.818,6.678.8.8,0,0,0-.556,1.051,8.427,8.427,0,0,1-.362,6.19c-1.094,2.085-3.291,3.563-6.532,4.392a.8.8,0,0,0-.59.886,3.8,3.8,0,0,1-1.043,2.664c-1.476,1.757-5.107,3.906-14.02,4.159a.8.8,0,0,0,.021,1.592Zm23.178,10.357a.8.8,0,0,0-.4-1.053l-5.806-2.616a.8.8,0,1,0-.655,1.452l5.806,2.616a.8.8,0,0,0,1.054-.4M72.387,50.675a.8.8,0,0,0-.649-.919l-.022,0a.785.785,0,0,0-.909.651.806.806,0,0,0,.661.922.88.88,0,0,0,.136.011.8.8,0,0,0,.783-.661m-9.413,6.207,2.953-1.24a.8.8,0,1,0-.615-1.467l-2.953,1.239a.8.8,0,0,0,.308,1.53.777.777,0,0,0,.307-.062M39.243,48.3a.8.8,0,0,0,.606-.949l-.5-2.26a18.968,18.968,0,0,0-13.6-14.277L11.627,26.981a.8.8,0,0,0-.953.485A8.836,8.836,0,0,0,14.88,38.143a.8.8,0,1,0,.8-1.378,7.1,7.1,0,0,1-3.712-8.042l13.368,3.625A17.377,17.377,0,0,1,37.8,45.428l.5,2.26a.8.8,0,0,0,.777.625.847.847,0,0,0,.172-.018M12.532,81.712l11.184-6.777a.8.8,0,0,0-.825-1.362L11.7,80.352a1.388,1.388,0,0,1-1.739-.244A15.139,15.139,0,0,1,6.3,69.931a1.409,1.409,0,0,1,1.422-1.418l10.411.209a.8.8,0,1,0,.031-1.592L7.737,66.922H7.65a2.993,2.993,0,0,0-2.942,3.033A16.722,16.722,0,0,0,8.79,81.181a2.98,2.98,0,0,0,3.742.531m25.6-5.891a.8.8,0,1,0-.566-1.488A15.893,15.893,0,0,1,19.658,69.6a1.4,1.4,0,0,1,.356-2.09l3.189-1.9a.8.8,0,0,0-.816-1.367l-3.191,1.9a2.987,2.987,0,0,0-1.025,4.1,2.938,2.938,0,0,0,.264.373,17.48,17.48,0,0,0,19.7,5.2m6.651-4.509A17.428,17.428,0,0,0,49.25,57.324a7.033,7.033,0,0,0,3.56-7.558c-.7-3.608-4.071-5.913-8.2-5.611-5.037.371-8.759,6.523-9.78,8.4a.8.8,0,1,0,1.4.76c1.9-3.5,5.134-7.326,8.5-7.573,3.3-.244,5.977,1.537,6.519,4.327a5.455,5.455,0,0,1-3.186,6.066.8.8,0,0,0-.466.854,15.846,15.846,0,0,1-3.987,13.247.8.8,0,0,0,1.174,1.076M31.294,65.477a.8.8,0,0,0-.774-.819c-8.84-.251-12.477-2.369-13.972-4.1a3.811,3.811,0,0,1-1.09-2.721.8.8,0,0,0-.59-.886c-3.242-.829-5.439-2.307-6.533-4.393a8.415,8.415,0,0,1-.362-6.188.8.8,0,0,0-.556-1.053A7.094,7.094,0,0,1,1.6,38.638l13.848-.269a17.4,17.4,0,0,1,15.632,9.062l9.383,17.152a.8.8,0,0,0,1.4-.763L32.476,46.668a18.938,18.938,0,0,0-17.059-9.89L.786,37.062a.8.8,0,0,0-.778.732A8.819,8.819,0,0,0,6.24,46.638a9.69,9.69,0,0,0,.677,6.64c1.238,2.375,3.579,4.073,6.964,5.051a5.764,5.764,0,0,0,1.4,3.193c2.452,2.919,7.565,4.51,15.194,4.727H30.5a.8.8,0,0,0,.8-.773M8.351,77.005l5.806-2.616a.8.8,0,1,0-.654-1.452L7.7,75.554a.8.8,0,0,0,.654,1.452M45.527,51.324l.022,0a.788.788,0,0,0,.633-.922.808.808,0,0,0-.934-.641.8.8,0,0,0,.139,1.579.84.84,0,0,0,.14-.012m9.53,5.133a.8.8,0,0,0-.426-1.042l-2.953-1.239a.8.8,0,1,0-.616,1.467l2.953,1.24a.778.778,0,0,0,.308.062.794.794,0,0,0,.734-.488M41.9,7.645a.8.8,0,0,0,0-1.125L40.082,4.69a.8.8,0,1,0-1.129,1.122l1.818,1.829a.8.8,0,0,0,1.125,0m-3.571,4.963a.794.794,0,0,0-.578-.965l-2.529-.634a.8.8,0,1,0-.387,1.543l2.529.634a.777.777,0,0,0,.194.024.794.794,0,0,0,.77-.6M46.88,4.1a.8.8,0,0,0,.584-.962L46.844.607A.8.8,0,0,0,45.3.985l.62,2.533a.8.8,0,0,0,.772.607.823.823,0,0,0,.19-.023M76.22,7.642l1.818-1.829A.8.8,0,1,0,76.909,4.69L75.091,6.519A.8.8,0,1,0,76.22,7.642m3.41,5.544,2.529-.634a.8.8,0,1,0-.388-1.543l-2.529.634a.8.8,0,0,0,.193,1.567.777.777,0,0,0,.194-.024M71.074,3.519,71.693.985A.8.8,0,1,0,70.147.607l-.619,2.533a.8.8,0,0,0,.584.962.812.812,0,0,0,.189.023.8.8,0,0,0,.773-.607" transform="translate(0 0)" fill="#b7963e"/>
  </g>
</svg>
