<svg id="Group_91" data-name="Group 91" xmlns="http://www.w3.org/2000/svg" xmlns:xlink="http://www.w3.org/1999/xlink" width="83.001" height="83" viewBox="0 0 83.001 83">
  <defs>
    <clipPath id="clip-path">
      <rect id="Rectangle_285" data-name="Rectangle 285" width="83.001" height="83" fill="#b7963e"/>
    </clipPath>
  </defs>
  <rect id="Rectangle_283" data-name="Rectangle 283" width="1.77" height="2.434" transform="matrix(0.8, -0.6, 0.6, 0.8, 24.996, 13.546)" fill="#b7963e"/>
  <g id="Group_90" data-name="Group 90" transform="translate(0 0)">
    <g id="Group_89" data-name="Group 89" clip-path="url(#clip-path)">
      <path id="Path_93" data-name="Path 93" d="M7.433,37.144a.879.879,0,0,1-.75-.416L.134,26.247A.879.879,0,0,1,0,25.779V.885A.885.885,0,0,1,.885,0H16.607a.888.888,0,0,1,.708.353L23.94,9.185l-1.417,1.062L16.165,1.769H1.769V25.524l5.962,9.544L31.023,21.582l-2.095-2.794,1.417-1.062,2.694,3.59a.885.885,0,0,1-.177,1.239.912.912,0,0,1-.087.056L7.877,37.024a.87.87,0,0,1-.407.119Z" transform="translate(0 0)" fill="#b7963e"/>
      <path id="Path_94" data-name="Path 94" d="M14.111,46.99a.885.885,0,0,1-.739-.392l-2.384-3.577,1.472-.983L14.367,44.9,33.837,32.739l-1.88-2.818,1.47-.982,2.387,3.577a.884.884,0,0,1-.247,1.226L14.587,46.854a.888.888,0,0,1-.473.136Z" transform="translate(-2.744 -7.226)" fill="#b7963e"/>
      <path id="Path_95" data-name="Path 95" d="M54.112,91.906a3.969,3.969,0,0,1-3.146-1.573L48.2,86.652l1.416-1.062,2.76,3.683a2.183,2.183,0,0,0,1.729.864h1.144a2.16,2.16,0,0,0,1.823-3.323l-7.858-12.35a.885.885,0,0,1,1.5-.945L58,84.973a2.381,2.381,0,1,0,4-2.581L54.458,70.534a.887.887,0,1,1,1.452-1.02l5.921,7.9a1.933,1.933,0,0,0,3.154-2.232L58.4,65.31A.885.885,0,1,1,59.856,64.3l5.407,7.572a1.424,1.424,0,0,0,1.985.336,1.412,1.412,0,0,0,.527-.711l.745-2.24a4.2,4.2,0,0,0-.709-3.971L63.688,60.13,61.1,56.246,44.155,41.911l-4.993-4.99,1.251-1.251,4.94,4.94L62.331,54.97a.947.947,0,0,1,.165.186l2.62,3.93,4.077,5.092a6.034,6.034,0,0,1,1.31,3.741,5.923,5.923,0,0,1-.308,1.9l-.745,2.237a3.191,3.191,0,0,1-1.6,1.85,3.228,3.228,0,0,1-.786.274l-.512.107.21.479a3.7,3.7,0,0,1-.77,4.115,3.615,3.615,0,0,1-2.571,1.083l-.878-.019.958,1.51a4.151,4.151,0,0,1-3.5,6.38c-.118,0-.235-.005-.353-.014l-.432-.038-.028.434a3.954,3.954,0,0,1-3.8,3.692Z" transform="translate(-9.778 -8.906)" fill="#b7963e"/>
      <path id="Path_96" data-name="Path 96" d="M32.082,93.461a3.759,3.759,0,0,1-1.122-.209l-.331-.113a4.119,4.119,0,0,1-.941-7.232L32.1,84.237l4.339-4.507a3.749,3.749,0,0,1,5.3,0,3.922,3.922,0,0,1,.224,5.144L37.206,90.8a.9.9,0,0,1-.189.18l-2.6,1.8a3.865,3.865,0,0,1-2.2.683Zm1.227-7.93a.966.966,0,0,1-.136.116L30.688,87.36a2.322,2.322,0,0,0-.983,1.928A2.285,2.285,0,0,0,31.2,91.464l.338.116a2.079,2.079,0,0,0,1.878-.264L35.9,89.591l4.669-5.822a2.145,2.145,0,0,0-.118-2.807,1.921,1.921,0,0,0-2.722-.036l-.575.563.033.008Z" transform="translate(-6.975 -19.634)" fill="#b7963e"/>
      <path id="Path_97" data-name="Path 97" d="M26.342,85.469a4.1,4.1,0,0,1-1.895-3.461,4.224,4.224,0,0,1,4.139-4.173h.047l.263-.065,3-2.048a3.337,3.337,0,0,1,1.074-.6.869.869,0,0,1,.227-.035h1.3a.949.949,0,0,1,.216.025A3.537,3.537,0,0,1,36.7,76.548a2.952,2.952,0,0,1,.017,3.675l-1.255-1.3a1.273,1.273,0,0,0-.214-1.362,1.914,1.914,0,0,0-.761-.666l-.089-.043H33.339l-.431.317-3.152,2.149a.93.93,0,0,1-.29.131l-.519.131a.836.836,0,0,1-.207.026h0a2.472,2.472,0,0,0-2.524,2.388A2.372,2.372,0,0,0,27.328,84l2.093,1.48L28.4,86.926Z" transform="translate(-6.104 -18.748)" fill="#b7963e"/>
      <path id="Path_98" data-name="Path 98" d="M36.845,100.874a3.449,3.449,0,0,1-3.264-2.333l-.228-.674a3.388,3.388,0,0,1,.837-3.508L40.2,88.427a3.866,3.866,0,0,1,5.411,0,3.737,3.737,0,0,1,.284,5.06l-3.62,4.466a.882.882,0,0,1-.2.173l-3.3,2.174a3.453,3.453,0,0,1-1.906.572ZM42.9,89.08a2.078,2.078,0,0,0-1.462.6l-6,5.933a1.635,1.635,0,0,0-.405,1.686l.228.672a1.737,1.737,0,0,0,2.256,1,1.812,1.812,0,0,0,.278-.14l3.2-2.1,3.532-4.356a1.991,1.991,0,0,0-.156-2.692,2.075,2.075,0,0,0-1.461-.6" transform="translate(-8.283 -21.803)" fill="#b7963e"/>
      <path id="Path_99" data-name="Path 99" d="M43.474,105.232a3.4,3.4,0,0,1-2.942-1.627,2.824,2.824,0,0,1,.642-3.544l1.6-1.4L45.6,95.371a3.156,3.156,0,0,1,2.18-1.068c.092-.007.176-.011.26-.011a3.263,3.263,0,0,1,2.121.784,2.639,2.639,0,0,1,.592,3.319l-2.98,5.217a3.372,3.372,0,0,1-2.874,1.621H43.474m4.353-9.162a1.4,1.4,0,0,0-.868.429L44.1,99.832a1.006,1.006,0,0,1-.089.09l-1.671,1.462a1.035,1.035,0,0,0-.269,1.346,1.629,1.629,0,0,0,1.352.732H44.84a1.64,1.64,0,0,0,1.38-.7l3-5.249a.888.888,0,0,0-.248-1.134,1.446,1.446,0,0,0-.913-.321h-.222Z" transform="translate(-10.03 -23.543)" fill="#b7963e"/>
      <path id="Path_100" data-name="Path 100" d="M26.356,87.635a4.281,4.281,0,0,1-3.627-2.055l-5.017-8.364a13.978,13.978,0,0,1-2-7.2V59.236a.873.873,0,0,1,.063-.33l2.473-6.181-.943-1.886,1.584-.792,1.119,2.24a.884.884,0,0,1,.03.723l-2.557,6.4V70.02a12.2,12.2,0,0,0,1.744,6.287l5.017,8.364a2.461,2.461,0,0,0,4.385-.324l1.746.386a4.239,4.239,0,0,1-4.019,2.9" transform="translate(-3.924 -12.496)" fill="#b7963e"/>
      <rect id="Rectangle_284" data-name="Rectangle 284" width="1.77" height="3.875" transform="matrix(0.832, -0.555, 0.555, 0.832, 17.417, 56.756)" fill="#b7963e"/>
      <path id="Path_101" data-name="Path 101" d="M73.695,54.976l23-21.719V3.506L79.49,26.083a40.64,40.64,0,0,1-4.935,5.382L63.113,41.87l-1.192-1.31L73.363,30.154a38.826,38.826,0,0,0,4.717-5.144L96.873.348a.885.885,0,0,1,1.24-.167.891.891,0,0,1,.348.7V33.638a.886.886,0,0,1-.277.643L74.91,56.263Z" transform="translate(-15.461 0)" fill="#b7963e"/>
      <path id="Path_102" data-name="Path 102" d="M85.588,65.5c-3.178,0-8.725-3.545-14.151-9.032-5.321-5.384-8.689-10.8-8.579-13.794a2.545,2.545,0,0,1,.836-1.91,2.663,2.663,0,0,1,1.816-.6c1.559,0,3.725.871,6.282,2.524l-.978,1.474c-3.226-2.078-4.87-2.244-5.307-2.244a.974.974,0,0,0-.659.187l-.056.05-.036.065a1.01,1.01,0,0,0-.125.569c-.08,2.017,2.664,6.967,8.063,12.432,5.834,5.9,11.015,8.557,12.829,8.557a1.044,1.044,0,0,0,.7-.213c.485-.423.335-2.348-1.976-5.948l1.475-.973c2.586,4.023,3.178,6.949,1.661,8.259a2.673,2.673,0,0,1-1.684.6Z" transform="translate(-15.694 -10.03)" fill="#b7963e"/>
    </g>
  </g>
</svg>
