<svg xmlns="http://www.w3.org/2000/svg" xmlns:xlink="http://www.w3.org/1999/xlink" width="93.591" height="69" viewBox="0 0 93.591 69">
  <defs>
    <clipPath id="clip-path">
      <rect id="Rectangle_281" data-name="Rectangle 281" width="93.591" height="69" fill="#b7963e"/>
    </clipPath>
  </defs>
  <g id="Group_86" data-name="Group 86" transform="translate(0 0)">
    <g id="Group_85" data-name="Group 85" transform="translate(0 0)" clip-path="url(#clip-path)">
      <path id="Path_81" data-name="Path 81" d="M85.469,69a.769.769,0,0,1-.547-1.311A21.273,21.273,0,0,0,87.3,64.841c.351-.494.685-1.012.986-1.54a.774.774,0,0,1,.614-.391l.069,0a.768.768,0,0,1,.646,1.164c-.323.551-.676,1.1-1.052,1.649a23.348,23.348,0,0,1-2.546,3.046.766.766,0,0,1-.547.228m-15.66-1.4a22.2,22.2,0,0,1-9.041-1.961A38.61,38.61,0,0,1,52.111,60.4l-.1-.082-.12.058A48.577,48.577,0,0,1,30.817,65.4a38.8,38.8,0,0,1-12.655-2.056c-5.7-1.922-12.576-6.932-13.183-14.731C4.221,39.027,12.163,32,15.612,29.429l.085-.065a46.274,46.274,0,0,1,17.489-7.783l.163-.035,0-.166C33.519,12.289,37.391,4.968,43.709,1.8A17.281,17.281,0,0,1,51.362,0h.292c.365,0,.716.013,1.036.032A28.511,28.511,0,0,1,66.84,5.34a51.689,51.689,0,0,1,20.689,33.2c.98,5.954,1.536,17.019-5.738,24.364a16.488,16.488,0,0,1-11.981,4.7m-8.381-3.345a20.546,20.546,0,0,0,8.341,1.8,15.067,15.067,0,0,0,10.916-4.227c6.8-6.861,6.248-17.369,5.314-23.02A50.148,50.148,0,0,0,65.946,6.61a26.451,26.451,0,0,0-14-5.053l-.194,0-.007.069c-.12,0-.24,0-.36,0a15.843,15.843,0,0,0-6.968,1.623c-5.662,2.843-9.211,9.5-9.5,17.814l-.009.26.255-.047a43.716,43.716,0,0,1,7.734-.691q.889,0,1.78.036l.232.01-.014-.232c-.013-.234-.02-.465-.027-.695A23.668,23.668,0,0,1,45,16.74a5.9,5.9,0,0,1,.138-1.171,1.572,1.572,0,0,1,.007-.259,13.341,13.341,0,0,1,2.48-6.253,8.913,8.913,0,0,1,5.723-3.611,13.255,13.255,0,0,1,4.2.061c3.384.6,6.911,2.5,10.779,5.821A50.013,50.013,0,0,1,83.42,37.176c.968,4.69,1.842,11.533-1.748,17A9.259,9.259,0,0,1,73.686,58.2a11.4,11.4,0,0,1-3.659-.606,21.9,21.9,0,0,1-5.553-2.637s-.016-.021-.035-.044c-5.157-3.348-10.012-8.849-13.715-15.528-.613-1.1-1.185-2.234-1.7-3.356-.491-1.063-.86-1.924-1.162-2.708L47.81,33.2l-.135-.008c-.809-.047-1.629-.071-2.44-.071a41.928,41.928,0,0,0-6.819.56c-.512.07-1.02.176-1.584.3l-.22.047.063.216c.4,1.357.863,2.725,1.384,4.064l.016.05A52.4,52.4,0,0,0,49.753,56.292a.97.97,0,0,1,.3.262,38.134,38.134,0,0,0,11.326,7.687l.04.018ZM16.411,30.664c-3.285,2.472-10.62,9.018-9.927,17.767.551,7.052,6.883,11.622,12.138,13.391a37.2,37.2,0,0,0,12.148,1.97A47.008,47.008,0,0,0,50.382,59.31l.289-.134-.294-.263c-.364-.328-.717-.645-1.094-1l-.1-.095-.127.055a46.3,46.3,0,0,1-18.379,4.054,37.149,37.149,0,0,1-6.731-.606c-4.057-.823-9.249-2.8-11.046-7.534l-.009-.046a9.081,9.081,0,0,1,.472-6.814,14.938,14.938,0,0,1,1.911-3.122A9.435,9.435,0,0,1,16.5,42.4c.266-.279.539-.54.8-.789l.094-.091a.8.8,0,0,1,.164-.128c5.113-4.643,12.216-7.86,20.577-9.328a44.537,44.537,0,0,1,7.221-.593c.861,0,1.733.026,2.593.076l.04,0,.038-.012a.772.772,0,0,1,.639.074l.042.026.049,0a25.131,25.131,0,0,1,7.864,2,.986.986,0,0,1,.182.075c.107.053.2.1.3.147.195.091.388.182.572.29l.26.155.053.037.139.077c.267.149.529.295.8.47a8.8,8.8,0,0,1,4.039,10.144,13.626,13.626,0,0,1-2.376,4.476l-.12.15.139.132c.255.243.512.472.769.7l.6.546.141-.156c3.88-4.264,7.045-11.074,4.288-17.4C62.954,25.5,53.469,23.158,49.552,22.524a51.4,51.4,0,0,0-5.285-.454L44.106,22q-.5-.011-1-.011a45.156,45.156,0,0,0-26.6,8.6l-.087.063Zm-1.862,17.6a7.153,7.153,0,0,0-.2,5.037c1.544,4.1,6.236,5.852,9.9,6.6a35.515,35.515,0,0,0,6.45.581,44.47,44.47,0,0,0,17.041-3.613l.28-.118-.21-.221c-.812-.849-1.6-1.731-2.344-2.62l-.1-.12-.143.061a33.651,33.651,0,0,1-13.36,2.748,34.04,34.04,0,0,1-5.491-.448c-3.3-.616-9.148-2.437-11.351-7.711v-.023l-.065-.116-.191-.47ZM52.5,11.11a11.31,11.31,0,0,1,1.2.063,17.856,17.856,0,0,1,7.043,2.359,34.185,34.185,0,0,1,12.531,13.3A34.227,34.227,0,0,1,77.9,44.515c-.236,5.289-2.188,9.421-5.5,11.637l-.471.316.564.067a9.8,9.8,0,0,0,1.151.068,7.89,7.89,0,0,0,6.744-3.324c2.456-3.738,2.956-8.908,1.53-15.8a48.513,48.513,0,0,0-14.606-25.04C63.055,8.787,59.242,6.943,55.654,6.8l-.2-.021-.266,0a9.694,9.694,0,0,0-1.621.137,7.3,7.3,0,0,0-4.737,3.021,10,10,0,0,0-1.092,1.822l-.231.5.5-.217A11.306,11.306,0,0,1,52.5,11.11m-.047,1.519a9.291,9.291,0,0,0-4.424,1.124,7.42,7.42,0,0,0-1.051.747l-.056.048-.014.073c-.144.753-.272,1.437-.362,2.171a18.2,18.2,0,0,0-.129,2.759c-.005.285.009.6.026.888l.01.18.179.017c1.034.1,2.1.2,3.153.375,4.177.674,14.279,3.178,18.046,11.868,3.032,6.96-.335,14.364-4.5,18.971l-.149.166.174.139a23.258,23.258,0,0,0,6.3,3.576l.068.025.07-.021a6.642,6.642,0,0,0,1.144-.486c3.245-1.807,5.172-5.641,5.428-10.8a32.781,32.781,0,0,0-4.44-16.872,32.673,32.673,0,0,0-11.937-12.7,15.918,15.918,0,0,0-7.1-2.216V12.64q-.221-.011-.442-.011M34.889,34.383C27.9,36.108,22.2,39.074,17.95,43.2l-.31.3c-.4.415-.758.847-1.135,1.305a3.367,3.367,0,0,0-.324.572,2.038,2.038,0,0,0,.151,2.227l.018.047.039.081c1.362,3.4,5.108,5.921,10.274,6.889a32.409,32.409,0,0,0,5.192.42,32.157,32.157,0,0,0,12.264-2.418l.253-.1-.165-.218a56.724,56.724,0,0,1-7.557-13.4C36.1,37.47,35.6,36,35.168,34.535l-.032-.11-.165-.047ZM58.84,37.068l.011.117a11.656,11.656,0,0,1-2.218,8.021l-.1.129.1.126c.866,1.08,1.729,2.073,2.567,2.95l.169.176.149-.192A11.946,11.946,0,0,0,61.5,44.613,7.278,7.278,0,0,0,59.2,37l-.128-.107ZM49.775,33.9c.2.479.407.973.649,1.461.482,1.043,1.04,2.139,1.655,3.254a50.385,50.385,0,0,0,3.3,5.178l.184.254.164-.267a9.068,9.068,0,0,0,1.032-8.245l-.031-.071-.069-.034a22.252,22.252,0,0,0-6.751-2.03l-.364-.048ZM15.782,67.071a.762.762,0,0,1-.277-.052C8.8,64.754.718,58.855,0,49.673a.768.768,0,0,1,.716-.838H.772a.772.772,0,0,1,.761.718c.413,5.273,4.446,12.627,14.455,16.006a.769.769,0,0,1-.206,1.511m75.441-7.722a.771.771,0,0,1-.721-1.037,28.7,28.7,0,0,0,.91-3.59,43.148,43.148,0,0,0-.03-14.908.77.77,0,0,1,.707-.906l.07.006a.768.768,0,0,1,.745.653,44.421,44.421,0,0,1,.02,15.449,34.515,34.515,0,0,1-.955,3.758.771.771,0,0,1-.57.553.75.75,0,0,1-.176.021M1.4,43.918a.769.769,0,0,1-.73-1.009,23.96,23.96,0,0,1,2.719-6.13A.774.774,0,0,1,4.05,36.4l.059-.417-.036.417A.77.77,0,0,1,4.7,37.579a22.5,22.5,0,0,0-2.543,5.728.773.773,0,0,1-.55.584.788.788,0,0,1-.2.027m19.132-23.76c-3.368,0-5.706-.725-7.144-2.218a6.607,6.607,0,0,1-.042-8.962l.027-.028.014-.036a.769.769,0,0,1,.164-.252,6.521,6.521,0,0,1,4.52-1.809c.107,0,.213,0,.32.008l.224.011,0-.224a6.591,6.591,0,0,1,1.959-4.786A6.484,6.484,0,0,1,25.1.033l.161,0A6.518,6.518,0,0,1,29.844,2.01c2.343,2.446,2.122,6.831,1.752,9.917a43.842,43.842,0,0,1-1.29,6.518.772.772,0,0,1-.545.525,46.155,46.155,0,0,1-6.542,1.067c-1.007.081-1.888.121-2.689.121m-2.423-11.8a5,5,0,0,0-3.5,1.417,5.089,5.089,0,0,0-.138,7.1c1.444,1.489,4.752,1.71,6.595,1.71.659,0,1.333-.027,2.008-.081a34.806,34.806,0,0,0,5.725-.9l.12-.03.033-.119a38.485,38.485,0,0,0,1.1-5.7c.366-3.148.209-7.08-1.333-8.674a4.96,4.96,0,0,0-3.489-1.492H25.1a4.989,4.989,0,0,0-4.888,6.014.77.77,0,0,1-.754.924.776.776,0,0,1-.18-.021,5,5,0,0,0-1.166-.138" transform="translate(0 0)" fill="#b7963e"/>
    </g>
  </g>
</svg>
