<svg xmlns="http://www.w3.org/2000/svg" xmlns:xlink="http://www.w3.org/1999/xlink" width="98.79" height="68.847" viewBox="0 0 98.79 68.847">
  <defs>
    <clipPath id="clip-path">
      <rect id="Rectangle_356" data-name="Rectangle 356" width="98.79" height="68.847" fill="#b7963e"/>
    </clipPath>
  </defs>
  <g id="Group_2610" data-name="Group 2610" clip-path="url(#clip-path)">
    <path id="Path_756" data-name="Path 756" d="M89.382,68.847a.9.9,0,0,1-.9-.9V61.8a5.764,5.764,0,0,1,.61-2.576l.7-1.4a.9.9,0,0,1,.807-.5.879.879,0,0,1,.4.1.9.9,0,0,1,.4,1.208l-.7,1.4a3.982,3.982,0,0,0-.417,1.771v6.143a.9.9,0,0,1-.9.9m-14.7,0a.9.9,0,0,1-.9-.847l-.664-11.3H71.39L70.726,68a.9.9,0,0,1-.9.847.913.913,0,0,1-.9-.954l.692-11.746-.075-.075a2.121,2.121,0,0,1-.6-1.228l-.06-.477-1.051,1.051a2.1,2.1,0,0,1-1.5.62c-.058,0-.116,0-.175-.007a2.114,2.114,0,0,1-1.549-.879L59.77,48.369l-7.925,2.882a6.793,6.793,0,0,0-2.43,1.59.745.745,0,0,1-.525.22,1.173,1.173,0,0,1-.679-.259.636.636,0,0,1-.215-.46,1.275,1.275,0,0,1,.22-.853,7.868,7.868,0,0,1,3.012-1.932l8.291-3.015,1.611-2.417a2.107,2.107,0,0,1,1.51-.931l.208-.025V38.8l-.088-.071a16.083,16.083,0,0,1-5.988-12.579V21.91l-.534-2.17a22.789,22.789,0,0,1-.681-5.524V10.833a8.217,8.217,0,0,1,7.093-8.112l.079-.011.057-.057A8.237,8.237,0,0,1,68.612.211h15.8a4.552,4.552,0,0,1,4.546,4.547v9.458a22.783,22.783,0,0,1-.68,5.524l-.528,2.112-.006,4.779A15.37,15.37,0,0,1,83.1,37.679a15.833,15.833,0,0,1-1.349,1.182l-.09.071v4.237l.208.025a2.108,2.108,0,0,1,1.509.931l2.008,3.011.065-.468L93.4,49.557a8.217,8.217,0,0,1,5.393,7.7V67.946a.9.9,0,0,1-1.8,0V57.255a6.41,6.41,0,0,0-4.207-6L85.2,48.5l0-.008-.426-.169L79.9,55.151a2.116,2.116,0,0,1-1.549.879c-.058,0-.116.007-.175.007a2.1,2.1,0,0,1-1.5-.62l-1.052-1.052-.059.479a2.123,2.123,0,0,1-.6,1.228l-.075.075.69,11.746a.9.9,0,0,1-.846.952ZM70.728,52.522v2.057a.314.314,0,0,0,.313.314h2.431a.314.314,0,0,0,.314-.314V52.522l-1.529-1.529Zm10.728-7.491L73.7,49.883l4.33,4.33.153.022a.319.319,0,0,0,.252-.128l4.883-6.836-1.5-2.251-.191-.034h-.067Zm-18.825.091L61.2,47.271l4.945,6.922.17.042a.322.322,0,0,0,.248-.1l4.256-4.255L63,45l-.108-.012h-.126Zm2.021-1.22,7.6,4.753,7.6-4.753V40.131l-.346.185a15.5,15.5,0,0,1-7.255,1.8l-.293,0A14.806,14.806,0,0,1,65,40.235l-.35-.193Zm3.96-41.89a6.393,6.393,0,0,0-4.777,2.157.9.9,0,0,1-.6.3,6.417,6.417,0,0,0-5.872,6.362v3.383a21,21,0,0,0,.625,5.087l.562,2.248a.881.881,0,0,1,.027.219v4.377c0,7.674,6.022,14.027,13.425,14.161l.273,0A13.681,13.681,0,0,0,85.938,26.63V21.77a.869.869,0,0,1,.027-.218l.563-2.249a21,21,0,0,0,.625-5.087V4.758a2.747,2.747,0,0,0-2.744-2.744ZM55.244,68.847a.9.9,0,0,1-.9-.9V61.8a3.982,3.982,0,0,0-.417-1.771l-.7-1.4a.9.9,0,0,1,.4-1.208.879.879,0,0,1,.4-.1.9.9,0,0,1,.807.5l.7,1.4a5.785,5.785,0,0,1,.609,2.576v6.143a.9.9,0,0,1-.9.9m-5.79-.211a.9.9,0,0,1-.9-.9V60.391a6.383,6.383,0,0,0-3.872-5.873l-4.1-1.756-.1.195a17.934,17.934,0,0,1-8.395,8.1,1.346,1.346,0,0,1-.2.111,16.862,16.862,0,0,1-13.422,0,.9.9,0,0,1-.159-.089,17.988,17.988,0,0,1-8.434-8.123l-.1-.195-4.1,1.756A6.384,6.384,0,0,0,1.8,60.391v7.344a.9.9,0,0,1-1.8,0V60.391a8.181,8.181,0,0,1,4.964-7.529l7.784-3.337-.557-.2A60.293,60.293,0,0,1,4,45.759a2.277,2.277,0,0,1-1.029-2.312C4.044,37.235,4.95,29.15,5.668,19.42,6.1,13.607,8.182,8.7,11.7,5.242A18.7,18.7,0,0,1,25.152,0,18.739,18.739,0,0,1,38.66,5.241c3.515,3.463,5.6,8.366,6.028,14.179.719,9.742,1.625,17.826,2.693,24.028a2.276,2.276,0,0,1-1.029,2.311,60.344,60.344,0,0,1-8.188,3.562l-.558.2,7.786,3.337a8.181,8.181,0,0,1,4.964,7.529v7.344a.9.9,0,0,1-.9.9M11.435,52.049l.12.226a15.564,15.564,0,0,0,13.622,8.482A15.567,15.567,0,0,0,38.8,52.275l.12-.226-2.634-1.129-.1.191a12.48,12.48,0,0,1-22.016,0l-.1-.191Zm7.379-6.161a4.542,4.542,0,0,1-2.756,4.179l-.24.1.078.25a10.6,10.6,0,0,0,18.563,0l.126-.23-.241-.1a4.561,4.561,0,0,1-2.8-4.2V41.764l-.327.138a15.6,15.6,0,0,1-12.073,0l-.327-.138Zm.383-31.3c.551.042,13.543,1.1,19.7,6.973a5.81,5.81,0,0,1,1.791,4.188v1.89A15.431,15.431,0,0,1,33.5,40.7l-.109.07v5.12a2.742,2.742,0,0,0,1.656,2.519l.081.035.084-.027a66.918,66.918,0,0,0,10.115-4.177.47.47,0,0,0,.22-.487c-1.078-6.268-1.991-14.41-2.715-24.2-.4-5.371-2.3-9.876-5.494-13.027A16.939,16.939,0,0,0,25.178,1.8,16.935,16.935,0,0,0,13.013,6.525c-3.2,3.151-5.1,7.655-5.495,13.027-.724,9.8-1.637,17.94-2.715,24.2a.468.468,0,0,0,.22.485,66.811,66.811,0,0,0,10.115,4.177l.084.027.082-.035a2.743,2.743,0,0,0,1.655-2.519v-5.12L16.85,40.7a15.432,15.432,0,0,1-7.18-12.837l.05-.228v-.928a3.336,3.336,0,0,1,1.618-2.856,12.215,12.215,0,0,0,4.553-5.125.9.9,0,1,1,1.611.806A13.87,13.87,0,0,1,12.261,25.4a1.5,1.5,0,0,0-.738,1.306v.929a13.654,13.654,0,1,0,27.308,0v-.693l.052-.236v-.961a4,4,0,0,0-1.232-2.883c-5.7-5.439-18.465-6.471-18.593-6.481a.9.9,0,0,1-.829-.967.9.9,0,0,1,.895-.832ZM39.231,68.636a.9.9,0,0,1-.9-.9v-4.86a.9.9,0,0,1,1.8,0v4.86a.9.9,0,0,1-.9.9m-28.609,0a.9.9,0,0,1-.9-.9v-4.86a.9.9,0,0,1,1.8,0v4.86a.9.9,0,0,1-.9.9m50.7-49.61a.9.9,0,0,1-.9-.9V15.441a3.313,3.313,0,0,1,3-3.316c1.567-.151,3.144-.226,4.688-.226a40.852,40.852,0,0,1,4.9.281c4.594.556,8.215,1.914,10.762,4.038A.9.9,0,0,1,82.616,17.6c-3.866-3.222-10.031-3.9-14.522-3.9-1.865,0-3.475.117-4.5.215a1.518,1.518,0,0,0-1.373,1.522v2.685a.9.9,0,0,1-.9.9" transform="translate(0 0)" fill="#b7963e"/>
  </g>
</svg>
