<svg xmlns="http://www.w3.org/2000/svg" xmlns:xlink="http://www.w3.org/1999/xlink" width="298.958" height="251.792" viewBox="0 0 298.958 251.792">
  <defs>
    <clipPath id="clip-path">
      <rect id="Rectangle_264" data-name="Rectangle 264" width="298.958" height="213.97" fill="#f4f2f0"/>
    </clipPath>
    <clipPath id="clip-path-2">
      <rect id="Rectangle_271" data-name="Rectangle 271" width="38.494" height="31.806" fill="#c1a760"/>
    </clipPath>
  </defs>
  <g id="Group_4575" data-name="Group 4575" transform="translate(-809.299 -3460)">
    <g id="Group_2590" data-name="Group 2590" transform="translate(809.299 3460)">
      <g id="Component_4_12" data-name="Component 4 – 12">
        <g id="Group_63" data-name="Group 63" transform="translate(0 37.823)" clip-path="url(#clip-path)">
          <path id="Path_48" data-name="Path 48" d="M554.8,265.02c-3.85.439-.038-4.535,8.039-7.534,8.077-2.962,14.8-15.433,7.889-23.662-5.964-.366-9.7,6.4-11.437,8.777-.755,1.061,0,0,1.246-2.487,4.491-33.719-18.495-31.635-23.666-28.051-5.548,3.877-4.114,4.645-8.115,5.559l.944,1.17c-2.793.037-3.737-3.255-5.586-2.633s-.906,3,.944,3.877c3.095,1.463,7.058-.475,9.851-2.779a10.42,10.42,0,0,1,3.812-2.194c14.8-3.035,18.646,6.876,19.212,18.432-.868-3.291-.83-13.934-9.361-17.189-5.02-1.9-9.814-.4-11.1.549,12.644,3.584,6.907,26.3,6.907,26.3l-.038-4.133c-.038-2.889-1.7-9.838-6-3.657-1.51,2.158-1.208,5.815-1.548,16.128-.34,10.35-11.323,22.016-10.078,17.884s.3-11.593-6.077-9.874c-7.209,6.693-7.511,16.6-6.643,18.688.868,2.048-.377,6.619-.34,8.7s-1.7-.4-2.189-4.133c-.34-2.633-4.756-4.937-6.454-3.657-4.227,4.169-.679,14.848-7.7,21.395-7.209,6.729-21.967,21.541-32.385,27.977,29.7-6.327,52.5-21.98,68.921-26.478,21.7-6,20.8-12.581,20.344-14.226-.566-2.158-8.153-3.657-11.55-1.134-5.171,3.84-6.417-1.609,1.245-4.133,7.662-2.56,22.571-6,25.855-18.03-4.3-3.255-11.1.11-14.947.549m-6.492,9.692a51.5,51.5,0,0,1-6.152,1.829q-1.585.384-3.171.658c-1.057.183-2.114.329-3.246.439v-.11a100.406,100.406,0,0,1-6.341,8.082,74.137,74.137,0,0,1-5.284,5.522c-.944.878-1.887,1.719-2.869,2.56-.491.4-.981.8-1.51,1.207-.491.4-1.019.8-1.51,1.17-.189.146-.377.293-.6.439.491,0,.981-.037,1.434-.073a44.412,44.412,0,0,0,5.4-.695,43.762,43.762,0,0,0,10.417-3.365l.151.256a45.94,45.94,0,0,1-10.191,4.5,40.094,40.094,0,0,1-5.511,1.28c-.944.146-1.887.293-2.831.366l-1.434.11a2.218,2.218,0,0,0-.491.037c-2.68,2.194-5.284,4.462-7.813,6.839-7.587,7.168-22.835,13.751-20.608,12.544,2.529-1.317,10.644-7.5,12.8-8.887a35.072,35.072,0,0,0,6.379-5.047c2.68-2.743,5.511-5.34,8.417-7.826V296.4h.151c.906-.768,1.812-1.5,2.718-2.267a3.377,3.377,0,0,0,.378-.329c0-.22.038-.475.038-.695a24.45,24.45,0,0,1,.491-2.816c.189-.914.377-1.865.6-2.78s.491-1.829.717-2.779c.528-1.829,1.132-3.657,1.812-5.413a32.639,32.639,0,0,1,2.416-5.193l.264.11c-.642,1.792-1.17,3.584-1.7,5.376-.491,1.829-.981,3.621-1.4,5.449-.226.914-.415,1.829-.6,2.743l-.566,2.743c-.113.585-.226,1.207-.34,1.792.264-.219.491-.4.755-.622.944-.8,1.849-1.646,2.755-2.487,1.812-1.682,3.548-3.474,5.246-5.266a111.257,111.257,0,0,0,9.323-11.593c.491-.695.981-1.426,1.434-2.158.377-1.463.755-2.926,1.095-4.389.415-1.792.793-3.621,1.17-5.449.679-3.657,1.246-7.314,1.585-11.008h.3a109.706,109.706,0,0,1-1.095,11.118c-.264,1.829-.566,3.694-.906,5.522-.075.439-.151.841-.226,1.28,1.547-2.487,2.944-5.084,4.265-7.717a67.4,67.4,0,0,0,5.209-13.824,43.116,43.116,0,0,0,1.208-7.278,28.21,28.21,0,0,0-.34-7.351l.264-.037a28.965,28.965,0,0,1,.679,7.424,44.843,44.843,0,0,1-.906,7.424,70.243,70.243,0,0,1-4.756,14.226c-.038.073-.038.11-.075.183a.289.289,0,0,1,.151-.073c.868-.475,1.7-1.024,2.529-1.536,1.661-1.1,3.246-2.231,4.831-3.438.793-.585,1.548-1.207,2.3-1.865.755-.622,1.472-1.28,2.189-1.975a36.693,36.693,0,0,0,3.963-4.352l.227.146a26.2,26.2,0,0,1-3.473,4.864c-.679.731-1.359,1.463-2.076,2.194-.717.695-1.472,1.39-2.227,2.048s-1.547,1.28-2.34,1.9-1.623,1.207-2.453,1.792c-.83.549-1.7,1.1-2.567,1.646-.453.256-.868.512-1.359.731a3.263,3.263,0,0,1-.642.183,99.887,99.887,0,0,1-6.152,10.862c-.528.841-1.094,1.646-1.623,2.45.642-.037,1.283-.11,1.887-.183,1.057-.11,2.076-.256,3.095-.439a49.482,49.482,0,0,0,6.115-1.463,44.629,44.629,0,0,0,11.437-5.193l.151.219a48.088,48.088,0,0,1-11.361,5.852" transform="translate(-289.445 -133.3)" fill="#f4f2f0"/>
          <path id="Path_49" data-name="Path 49" d="M712.369,210.92c1.095-7.79,3.246-8.046-2.567-15.141s-4.831-13.678-3.435-14.812c12.342.987,16.343,14.19,13.1,22.2,4-1.755,4.227-4.242,4.756-10.423s9.059-10.9,13.814-11.337c.264,17.042-4.19,24.137-10,26.99-5.85,2.889-15.664,2.523-15.664,2.523" transform="translate(-439.087 -114.785)" fill="#f4f2f0"/>
          <path id="Path_50" data-name="Path 50" d="M351.43,487.572c13.324-3.95,58.2-34.195,65.6-43.484,13.89-17.481.415-13.9-5.246-7.278-5.662,6.583-36.65,35.365-60.353,50.762" transform="translate(-218.785 -273.602)" fill="#f4f2f0"/>
          <path id="Path_51" data-name="Path 51" d="M447.93,458.759c3.171-8.594.6-12.215,4.265-15.324,5.813-4.937,7.02,1.573,7.02,1.573l-1.132,6.181s3.812-8.082,4.3-14.775,7.662-9.545,7.662-9.545a13.468,13.468,0,0,1,2.755,10.825c-.038.036-9.134,18.578-24.874,21.065" transform="translate(-278.861 -270.755)" fill="#f4f2f0"/>
          <path id="Path_52" data-name="Path 52" d="M611.18,12.763c3.171-2.231-.793-5.888-3.1-3.986-1.849,1.5-6.718-1.792-1.774-4.279,4.907-2.523,16.193.878,17.174,4.681-1.019,1.975-1.585,3.621,6.266,6.729A31.406,31.406,0,0,1,642.244,25.2s-9.474-4.5-15.211-2.45-.793,9.472,3.7,11.922c4.378,2.377,9.7,2.853,14.532,9.655-4.077-5.486-13.7-5.815-17.476-4.937-3.925.914.868,10.021,12.984,13.495s12.38,10.533,13.022,18.066c10.644-9.509,9.285-18.359,9.7-23.3s-1.132-6.729-6.114-3.8c1.963-2.743,2.529-9.765,1.208-14.007-1.359-4.242-3.171-3.145-5.888,3.694-2.076-5.961-6.228-17.518-21.212-27.429-15.022-9.948-28.648-6.071-30.46.037-1.812,6.071,6.945,8.85,10.153,6.619M655.832,61.44a64.133,64.133,0,0,0-1.132-8.448v.183s-.3-2.487-4.831-3.877c-3.02-.914-5.133-1.938-11.4-4.133-1.4-.366-4.831-.622-5.4-1.1,0,0,5.964-.549,8.832,1.1,4.869,1.28,7.4,2.487,11.814,3.986C649.264,34.3,639.224,30.062,632.77,26.7c24.5,6.071,23.93,31.415,23.062,34.743" transform="translate(-374.021 -0.011)" fill="#f4f2f0"/>
          <path id="Path_53" data-name="Path 53" d="M115.608,300.495c-6.983-6.546-3.472-17.225-7.7-21.395-1.7-1.243-6.115,1.024-6.454,3.657-.453,3.73-2.189,6.181-2.189,4.133.038-2.085-1.208-6.619-.34-8.7.868-2.048.528-12-6.643-18.688-6.379-1.719-7.322,5.742-6.077,9.874s-9.738-7.534-10.078-17.884-.038-13.97-1.548-16.128c-4.3-6.181-6,.768-6,3.657l-.038,4.133s-5.737-22.711,6.907-26.3c-1.283-.951-6.077-2.45-11.1-.549-8.568,3.255-8.493,13.9-9.361,17.189.528-11.593,4.416-21.468,19.212-18.432a10.419,10.419,0,0,1,3.812,2.194c2.793,2.3,6.756,4.242,9.851,2.779,1.849-.878,2.793-3.255.944-3.877s-2.793,2.67-5.586,2.633l.944-1.17c-4-.914-2.567-1.719-8.115-5.559-5.171-3.584-28.157-5.669-23.666,28.051,1.246,2.487,2,3.547,1.246,2.487-1.736-2.377-5.473-9.143-11.437-8.777-6.907,8.192-.189,20.663,7.889,23.662,8.077,2.962,11.89,7.973,8.04,7.534s-10.644-3.8-14.947-.549c3.284,12.032,18.193,15.47,25.855,18.03s6.417,7.973,1.246,4.133c-3.4-2.523-10.946-1.024-11.55,1.134-.453,1.646-1.359,8.265,20.344,14.226,16.381,4.535,39.216,20.151,68.921,26.478-10.455-6.437-25.176-21.248-32.385-27.977m-9.549,5.23c-2.529-2.377-5.133-4.645-7.813-6.839a2.4,2.4,0,0,1-.491-.037l-1.434-.11c-.944-.11-1.887-.219-2.831-.366a46.265,46.265,0,0,1-5.511-1.28,44.316,44.316,0,0,1-10.191-4.5l.151-.256A43.761,43.761,0,0,0,88.356,295.7a44.408,44.408,0,0,0,5.4.695c.491.037.981.037,1.434.073-.189-.146-.377-.293-.6-.439-.491-.366-1.019-.768-1.51-1.17s-1.019-.8-1.51-1.207c-.981-.841-1.925-1.682-2.869-2.56-1.849-1.755-3.623-3.621-5.284-5.522-2.265-2.6-4.341-5.3-6.341-8.082v.11c-1.132-.11-2.189-.256-3.246-.439s-2.114-.4-3.171-.658a49.5,49.5,0,0,1-6.152-1.829,45.716,45.716,0,0,1-11.286-5.888l.151-.219A45.83,45.83,0,0,0,64.8,273.761a51.175,51.175,0,0,0,6.115,1.463c1.019.183,2.076.329,3.1.439.642.073,1.246.146,1.887.183-.566-.8-1.095-1.609-1.623-2.45a103.507,103.507,0,0,1-6.152-10.862,1.853,1.853,0,0,1-.642-.183c-.491-.219-.906-.475-1.359-.731-.868-.512-1.736-1.061-2.567-1.646-.83-.549-1.661-1.17-2.453-1.792s-1.585-1.243-2.34-1.9-1.51-1.317-2.227-2.048a28.967,28.967,0,0,1-2.076-2.194,26.393,26.393,0,0,1-3.51-4.864l.226-.146a36.7,36.7,0,0,0,3.963,4.352c.717.695,1.434,1.317,2.189,1.975s1.51,1.28,2.3,1.865c1.548,1.207,3.171,2.341,4.831,3.438.83.549,1.661,1.061,2.529,1.536a.29.29,0,0,0,.151.073c-.038-.073-.038-.11-.075-.183a67.979,67.979,0,0,1-4.756-14.226,41.153,41.153,0,0,1-.906-7.424,28.815,28.815,0,0,1,.679-7.424l.264.037a28.207,28.207,0,0,0-.34,7.351,43.734,43.734,0,0,0,1.208,7.278A67.4,67.4,0,0,0,68.427,259.5c1.283,2.633,2.718,5.193,4.265,7.717-.075-.439-.151-.841-.226-1.28-.34-1.829-.642-3.657-.906-5.522a109.78,109.78,0,0,1-1.095-11.118h.3A108.923,108.923,0,0,0,72.353,260.3c.34,1.829.717,3.621,1.17,5.449.34,1.463.717,2.926,1.095,4.389.491.731.944,1.426,1.434,2.158a103.134,103.134,0,0,0,9.323,11.593c1.7,1.829,3.435,3.584,5.246,5.266.906.841,1.812,1.682,2.755,2.487.226.219.491.4.755.622-.113-.585-.226-1.207-.34-1.792l-.566-2.743c-.189-.914-.377-1.829-.6-2.743-.415-1.829-.906-3.657-1.4-5.449-.528-1.792-1.057-3.621-1.7-5.376l.264-.11a46.343,46.343,0,0,1,2.416,5.193c.679,1.792,1.283,3.584,1.812,5.413.264.914.491,1.829.717,2.779.226.914.415,1.865.6,2.78a24.434,24.434,0,0,1,.491,2.816c0,.219.038.475.038.695.113.11.264.219.377.329.906.731,1.812,1.5,2.718,2.267h.151v.146c2.906,2.487,5.737,5.083,8.417,7.826a35.072,35.072,0,0,0,6.379,5.047c2.114,1.39,10.229,7.57,12.8,8.887,2.227,1.243-13.06-5.34-20.646-12.508" transform="translate(-24.481 -133.3)" fill="#f4f2f0"/>
          <path id="Path_54" data-name="Path 54" d="M25.678,210.92c-1.095-7.79-3.246-8.046,2.567-15.141s4.831-13.678,3.435-14.812c-12.342.987-16.343,14.19-13.1,22.2-4-1.755-4.227-4.242-4.756-10.423S4.767,181.846.012,181.407c-.264,17.042,4.19,24.137,10,26.99,5.85,2.889,15.664,2.523,15.664,2.523" transform="translate(0 -114.785)" fill="#f4f2f0"/>
          <path id="Path_55" data-name="Path 55" d="M322.4,487.572c-13.324-3.95-58.24-34.195-65.6-43.484-13.89-17.481-.415-13.9,5.247-7.278,5.662,6.583,36.65,35.365,60.353,50.762" transform="translate(-156.087 -273.602)" fill="#f4f2f0"/>
          <path id="Path_56" data-name="Path 56" d="M302.8,458.759c-3.171-8.594-.6-12.215-4.265-15.324-5.813-4.937-7.02,1.573-7.02,1.573l1.132,6.181s-3.812-8.082-4.3-14.775-7.662-9.545-7.662-9.545a13.468,13.468,0,0,0-2.755,10.825c.038.036,9.134,18.578,24.874,21.065" transform="translate(-172.908 -270.755)" fill="#f4f2f0"/>
          <path id="Path_57" data-name="Path 57" d="M87.555,6.133C85.743.025,72.118-3.852,57.133,6.059S38,27.527,35.921,33.488c-2.718-6.839-4.529-7.936-5.888-3.694S29.278,41.059,31.24,43.8c-4.945-2.926-6.53-1.134-6.115,3.8s-.981,13.788,9.7,23.3c.642-7.534.906-14.592,13.022-18.066S64.757,40.291,60.832,39.34c-3.774-.878-13.4-.549-17.476,4.937,4.831-6.8,10.153-7.314,14.532-9.655,4.492-2.45,9.436-9.874,3.7-11.922s-15.211,2.45-15.211,2.45a31.406,31.406,0,0,1,12.493-9.289c7.889-3.109,7.322-4.718,6.266-6.729.944-3.8,12.229-7.2,17.174-4.681,4.907,2.523.075,5.815-1.774,4.279-2.3-1.9-6.266,1.755-3.1,3.986,3.171,2.267,11.927-.512,10.116-6.583M55.774,26.686c-6.454,3.365-16.457,7.607-20.91,22.455,4.416-1.5,6.983-2.706,11.814-3.986,2.831-1.646,8.832-1.1,8.832-1.1-.566.512-4,.731-5.4,1.1-6.266,2.194-8.342,3.218-11.4,4.133-4.567,1.39-4.831,3.877-4.831,3.877v-.183a58.385,58.385,0,0,0-1.132,8.448c-.868-3.328-1.434-28.672,23.024-34.743" transform="translate(-15.603 0)" fill="#f4f2f0"/>
        </g>
        <g id="Group_72" data-name="Group 72" transform="translate(168.587 31.806) rotate(180)">
          <g id="Group_72-2" data-name="Group 72" clip-path="url(#clip-path-2)">
            <path id="Path_61" data-name="Path 61" d="M37.806.223c-.822-.818-.571.841-1.232,1.41-1.963,1.955-3.309,1.682-6.413.227C27.08.4,21.534-.255,22.835,4.133c1.62,6.161-3.149,6.957-3.149,6.957l-.434,6.32-.434-6.32s-4.77-.818-3.149-6.957C16.969-.232,11.446.4,8.343,1.86,5.261,3.315,4.12,3.792,2.18,1.86,1.313,1.223,1.519-.573.7.245s-1.3,3.569.822,4.206C1.2,5.588.537,6.407,1.359,6.725s5.865.659,7.486-1.3,3.9-1.773,3.081.159-1.78,1.932-4.062,1.932S2.66,8.18,4.44,9.794c-.479.159-2.921,2.592-2.122,4.047a4.165,4.165,0,0,0,4.724-.477c.32.818.616.887,1.3.659,1.461-.477,1.62-1.773,2.921-2.91s3.743-.818,2.762,1.455-.662,3.729.32,4.365a3.346,3.346,0,0,0,1.3-.318s-.662,2.274.981,3.251c1.78-.637,1.62,1.955,2.6,2.114.981-.159.822-2.751,2.6-2.114,1.62-.978.981-3.251.981-3.251a3.5,3.5,0,0,0,1.3.318c.981-.659,1.3-2.114.32-4.365s1.506-2.615,2.807-1.478S28.7,13.523,30.161,14c.685.227.981.159,1.3-.659a4.122,4.122,0,0,0,4.724.477c.822-1.455-1.62-3.888-2.122-4.047C35.844,8.157,32.922,7.5,30.64,7.5s-3.264,0-4.062-1.932c-.822-1.955,1.461-2.114,3.081-.159s6.664,1.614,7.486,1.3.16-1.137-.16-2.274c2.122-.637,1.62-3.388.822-4.206" transform="translate(0 9.826)" fill="#c1a760"/>
            <path id="Path_62" data-name="Path 62" d="M8.667.072A3.322,3.322,0,0,0,6.225,3.141c-.822-.159-.981,1.3-.32,2.433.639,1.137,1.3,3.569.479,2.91-.822-.637-1.62.818-.639,2.114.981,1.319-.662,2.933-.662,2.933s-1.62-1.614-.662-2.91c.981-1.3.16-2.751-.662-2.114-.822.659-.16-1.773.479-2.91S4.719,3,3.92,3.164A3.3,3.3,0,0,0,1.478.095C.177-.223-.644.572.656.913c1.3.318,2.716,2.865,1.643,7.457-1.6,6.911,2.784,6.3,2.784,6.3s4.382.614,2.762-6.3C6.75,3.755,8.188,1.232,9.489.913c1.3-.341.479-1.159-.822-.841" transform="translate(14.168 5.111)" fill="#c1a760"/>
            <path id="Path_63" data-name="Path 63" d="M7.65,4.79c-.365-.432-3.264-1.523-6-.864C.712,4.289.415,2.63,1.51,2.334-.087,2.471-.589.243.848.106A8.143,8.143,0,0,1,4.181.675c-.137-.5-.137-.864.8-.568.936.273,2.6,1.728,2.67,4.683" transform="translate(8.498 5.805)" fill="#c1a760"/>
            <path id="Path_64" data-name="Path 64" d="M0,4.79c.365-.432,3.264-1.523,6-.864.936.364,1.232-1.3.137-1.591,1.6.136,2.1-2.092.639-2.228A8.143,8.143,0,0,0,3.446.675c.137-.5.137-.864-.8-.568C1.735.379.068,1.834,0,4.79" transform="translate(22.31 5.805)" fill="#c1a760"/>
            <path id="Path_65" data-name="Path 65" d="M1.3,0A1.162,1.162,0,0,0,0,1.3c0,.568.867,1.228.867,1.8V7.116c0,.364.114.637.365.7v.023h.137V7.821c.251-.068.365-.341.365-.7V3.092c0-.568.867-1.228.867-1.8A1.162,1.162,0,0,0,1.3,0" transform="translate(17.951)" fill="#c1a760"/>
          </g>
        </g>
      </g>
    </g>
  </g>
</svg>
