<svg xmlns="http://www.w3.org/2000/svg" width="101.348" height="101.348" viewBox="0 0 101.348 101.348">
  <g id="Group_4578" data-name="Group 4578" transform="translate(0 0)">
    <g id="Group_4577" data-name="Group 4577">
      <g id="Group_4576" data-name="Group 4576">
        <g id="Group_4575" data-name="Group 4575">
          <g id="Path_970" data-name="Path 970" fill="#fff">
            <path d="M 50.67392349243164 100.8478469848633 C 43.9002685546875 100.8478469848633 37.32948303222656 99.52132415771484 31.14412307739258 96.90513610839844 C 25.16950988769531 94.37808227539062 19.80364418029785 90.76029968261719 15.1956033706665 86.15224456787109 C 10.58755016326904 81.54420471191406 6.969763278961182 76.17833709716797 4.442709922790527 70.20372009277344 C 1.826523542404175 64.01836395263672 0.5000035166740417 57.44757843017578 0.5000035166740417 50.67392349243164 C 0.5000035166740417 43.9002685546875 1.826523542404175 37.32948303222656 4.442709922790527 31.14412307739258 C 6.969763278961182 25.16950988769531 10.58755016326904 19.80364418029785 15.1956033706665 15.1956033706665 C 19.80364418029785 10.58755016326904 25.16950988769531 6.969763278961182 31.14412307739258 4.442709922790527 C 37.32948303222656 1.826523542404175 43.9002685546875 0.5000035166740417 50.67392349243164 0.5000035166740417 C 57.44757843017578 0.5000035166740417 64.01836395263672 1.826523542404175 70.20372009277344 4.442709922790527 C 76.17833709716797 6.969763278961182 81.54420471191406 10.58755016326904 86.15224456787109 15.1956033706665 C 90.76029968261719 19.80364418029785 94.37808227539062 25.16950988769531 96.90513610839844 31.14412307739258 C 99.52132415771484 37.32948303222656 100.8478469848633 43.9002685546875 100.8478469848633 50.67392349243164 C 100.8478469848633 57.44757843017578 99.52132415771484 64.01836395263672 96.90513610839844 70.20372009277344 C 94.37808227539062 76.17833709716797 90.76029968261719 81.54420471191406 86.15224456787109 86.15224456787109 C 81.54420471191406 90.76029968261719 76.17833709716797 94.37808227539062 70.20372009277344 96.90513610839844 C 64.01836395263672 99.52132415771484 57.44757843017578 100.8478469848633 50.67392349243164 100.8478469848633 Z" stroke="none"/>
            <path d="M 50.67392349243164 1 C 43.96754837036133 1 37.46229553222656 2.313232421875 31.33889770507812 4.903213500976562 C 25.42388153076172 7.405059814453125 20.11144256591797 10.98686981201172 15.54914855957031 15.54914855957031 C 10.98686981201172 20.11144256591797 7.405059814453125 25.42388153076172 4.903213500976562 31.33889770507812 C 2.313232421875 37.46229553222656 1 43.96754837036133 1 50.67392349243164 C 1 57.38029861450195 2.313232421875 63.88555145263672 4.903213500976562 70.00894927978516 C 7.405059814453125 75.92396545410156 10.98686981201172 81.23640441894531 15.54914855957031 85.79869842529297 C 20.11144256591797 90.36097717285156 25.42388153076172 93.94278717041016 31.33889770507812 96.44463348388672 C 37.46229553222656 99.03461456298828 43.96754837036133 100.3478469848633 50.67392349243164 100.3478469848633 C 57.38029861450195 100.3478469848633 63.88555145263672 99.03461456298828 70.00894927978516 96.44463348388672 C 75.92396545410156 93.94278717041016 81.23640441894531 90.36097717285156 85.79869842529297 85.79869842529297 C 90.36097717285156 81.23640441894531 93.94278717041016 75.92396545410156 96.44463348388672 70.00894927978516 C 99.03461456298828 63.88555145263672 100.3478469848633 57.38029861450195 100.3478469848633 50.67392349243164 C 100.3478469848633 43.96754837036133 99.03461456298828 37.46229553222656 96.44463348388672 31.33889770507812 C 93.94278717041016 25.42388153076172 90.36097717285156 20.11144256591797 85.79869842529297 15.54914855957031 C 81.23640441894531 10.98686981201172 75.92396545410156 7.405059814453125 70.00894927978516 4.903213500976562 C 63.88555145263672 2.313232421875 57.38029861450195 1 50.67392349243164 1 M 50.67392349243164 0 C 78.66036224365234 0 101.3478469848633 22.68748474121094 101.3478469848633 50.67392349243164 C 101.3478469848633 78.66036224365234 78.66036224365234 101.3478469848633 50.67392349243164 101.3478469848633 C 22.68748474121094 101.3478469848633 0 78.66036224365234 0 50.67392349243164 C 0 22.68748474121094 22.68748474121094 0 50.67392349243164 0 Z" stroke="none" fill="#ddd7cf"/>
          </g>
          <g id="Group_4492" data-name="Group 4492" transform="translate(-0.102 -2)">
            <path id="女性" d="M11.446,64.563v4.991a.9.9,0,1,1-1.791,0V64.563a.9.9,0,0,1,1.791,0m27.578-.884a.908.908,0,0,0-.935.884v4.989a.912.912,0,0,0,.9.926l0,0a.912.912,0,0,0,.9-.926V64.563a.914.914,0,0,0-.856-.884m-28.472,6.8Zm39.494-8.474v7.54a.911.911,0,0,1-.9.924l0,.007a.911.911,0,0,1-.9-.924v-7.54a6.556,6.556,0,0,0-3.848-6.03l-4.072-1.8-.1.2A18.1,18.1,0,0,1,31.893,62.7a1.312,1.312,0,0,1-.2.113,16.266,16.266,0,0,1-13.339,0,.861.861,0,0,1-.159-.091,18.152,18.152,0,0,1-8.381-8.341l-.1-.2L5.641,55.984a6.561,6.561,0,0,0-3.85,6.03v7.54a.91.91,0,0,1-.895.924.91.91,0,0,1-.9-.924v-7.54a8.41,8.41,0,0,1,4.936-7.729l7.737-3.426-.553-.209a58.954,58.954,0,0,1-8.136-3.657A2.37,2.37,0,0,1,2.96,44.626c1.057-6.379,1.962-14.68,2.675-24.671A22.658,22.658,0,0,1,11.624,5.4,18.258,18.258,0,0,1,25,.007,18.3,18.3,0,0,1,38.425,5.389a22.658,22.658,0,0,1,5.988,14.556c.715,10.008,1.615,18.3,2.677,24.671a2.37,2.37,0,0,1-1.023,2.365A58.953,58.953,0,0,1,37.93,50.64l-.555.209,7.738,3.426a8.413,8.413,0,0,1,4.931,7.731M15.051,49.719l.083.027.081-.036a2.823,2.823,0,0,0,1.645-2.587V41.868l-.107-.071A15.97,15.97,0,0,1,9.618,28.616l.049-.235v-.953a3.451,3.451,0,0,1,1.61-2.931A12.423,12.423,0,0,0,15.8,19.234a.882.882,0,0,1,1.2-.413.939.939,0,0,1,.4,1.241,14.1,14.1,0,0,1-5.209,6.026,1.558,1.558,0,0,0-.733,1.341v.953A13.8,13.8,0,0,0,25.029,42.4,13.8,13.8,0,0,0,38.6,28.383v-.719l.053-.242v-.986a4.175,4.175,0,0,0-1.233-2.96c-5.669-5.584-18.351-6.645-18.478-6.654A.928.928,0,0,1,19,14.973l.086.009c.548.042,13.459,1.134,19.577,7.16a6.063,6.063,0,0,1,1.779,4.3v1.94A15.98,15.98,0,0,1,33.3,41.795l-.107.071v5.257a2.823,2.823,0,0,0,1.645,2.587l.081.036L35,49.719A65.424,65.424,0,0,0,45.055,45.43a.486.486,0,0,0,.218-.5c-1.071-6.436-1.98-14.8-2.7-24.848a20.823,20.823,0,0,0-5.46-13.376,16.541,16.541,0,0,0-12.09-4.849A16.542,16.542,0,0,0,12.937,6.707a20.823,20.823,0,0,0-5.46,13.376c-.72,10.06-1.627,18.421-2.7,24.85a.488.488,0,0,0,.218.5,65.245,65.245,0,0,0,10.053,4.289m3.653-2.6a4.67,4.67,0,0,1-2.739,4.291l-.24.106.077.257a10.361,10.361,0,0,0,14.318,4.267,10.717,10.717,0,0,0,4.13-4.267l.125-.237-.24-.106a4.689,4.689,0,0,1-2.786-4.312V42.889l-.324.142a15.037,15.037,0,0,1-12,0l-.324-.142Zm19.991,6.328-2.617-1.159-.1.2a12.206,12.206,0,0,1-16.782,5.269,12.616,12.616,0,0,1-5.1-5.271l-.1-.2L11.37,53.449l.12.233A15.427,15.427,0,0,0,25.028,62.39a15.43,15.43,0,0,0,13.547-8.707Z" transform="translate(25.753 17.876)" fill="#eb88a2"/>
          </g>
        </g>
      </g>
    </g>
  </g>
</svg>
