<svg xmlns="http://www.w3.org/2000/svg" width="101.348" height="101.348" viewBox="0 0 101.348 101.348"><defs><style>.a{fill:#fff;}.b{fill:#1f4e7c;}.c,.d{stroke:none;}.d{fill:#ddd7cf;}</style></defs><g class="a" transform="translate(0 0)"><path class="c" d="M 50.67392349243164 100.8478469848633 C 43.9002685546875 100.8478469848633 37.32948303222656 99.52132415771484 31.14412307739258 96.90513610839844 C 25.16950988769531 94.37808227539062 19.80364418029785 90.76029968261719 15.1956033706665 86.15224456787109 C 10.58755016326904 81.54420471191406 6.969763278961182 76.17833709716797 4.442709922790527 70.20372009277344 C 1.826523542404175 64.01836395263672 0.5000035166740417 57.44757843017578 0.5000035166740417 50.67392349243164 C 0.5000035166740417 43.9002685546875 1.826523542404175 37.32948303222656 4.442709922790527 31.14412307739258 C 6.969763278961182 25.16950988769531 10.58755016326904 19.80364418029785 15.1956033706665 15.1956033706665 C 19.80364418029785 10.58755016326904 25.16950988769531 6.969763278961182 31.14412307739258 4.442709922790527 C 37.32948303222656 1.826523542404175 43.9002685546875 0.5000035166740417 50.67392349243164 0.5000035166740417 C 57.44757843017578 0.5000035166740417 64.01836395263672 1.826523542404175 70.20372009277344 4.442709922790527 C 76.17833709716797 6.969763278961182 81.54420471191406 10.58755016326904 86.15224456787109 15.1956033706665 C 90.76029968261719 19.80364418029785 94.37808227539062 25.16950988769531 96.90513610839844 31.14412307739258 C 99.52132415771484 37.32948303222656 100.8478469848633 43.9002685546875 100.8478469848633 50.67392349243164 C 100.8478469848633 57.44757843017578 99.52132415771484 64.01836395263672 96.90513610839844 70.20372009277344 C 94.37808227539062 76.17833709716797 90.76029968261719 81.54420471191406 86.15224456787109 86.15224456787109 C 81.54420471191406 90.76029968261719 76.17833709716797 94.37808227539062 70.20372009277344 96.90513610839844 C 64.01836395263672 99.52132415771484 57.44757843017578 100.8478469848633 50.67392349243164 100.8478469848633 Z"/><path class="d" d="M 50.67392349243164 1 C 43.96754837036133 1 37.46229553222656 2.313232421875 31.33889770507812 4.903213500976562 C 25.42388153076172 7.405059814453125 20.11144256591797 10.98686981201172 15.54914855957031 15.54914855957031 C 10.98686981201172 20.11144256591797 7.405059814453125 25.42388153076172 4.903213500976562 31.33889770507812 C 2.313232421875 37.46229553222656 1 43.96754837036133 1 50.67392349243164 C 1 57.38029861450195 2.313232421875 63.88555145263672 4.903213500976562 70.00894927978516 C 7.405059814453125 75.92396545410156 10.98686981201172 81.23640441894531 15.54914855957031 85.79869842529297 C 20.11144256591797 90.36097717285156 25.42388153076172 93.94278717041016 31.33889770507812 96.44463348388672 C 37.46229553222656 99.03461456298828 43.96754837036133 100.3478469848633 50.67392349243164 100.3478469848633 C 57.38029861450195 100.3478469848633 63.88555145263672 99.03461456298828 70.00894927978516 96.44463348388672 C 75.92396545410156 93.94278717041016 81.23640441894531 90.36097717285156 85.79869842529297 85.79869842529297 C 90.36097717285156 81.23640441894531 93.94278717041016 75.92396545410156 96.44463348388672 70.00894927978516 C 99.03461456298828 63.88555145263672 100.3478469848633 57.38029861450195 100.3478469848633 50.67392349243164 C 100.3478469848633 43.96754837036133 99.03461456298828 37.46229553222656 96.44463348388672 31.33889770507812 C 93.94278717041016 25.42388153076172 90.36097717285156 20.11144256591797 85.79869842529297 15.54914855957031 C 81.23640441894531 10.98686981201172 75.92396545410156 7.405059814453125 70.00894927978516 4.903213500976562 C 63.88555145263672 2.313232421875 57.38029861450195 1 50.67392349243164 1 M 50.67392349243164 0 C 78.66036224365234 0 101.3478469848633 22.68748474121094 101.3478469848633 50.67392349243164 C 101.3478469848633 78.66036224365234 78.66036224365234 101.3478469848633 50.67392349243164 101.3478469848633 C 22.68748474121094 101.3478469848633 0 78.66036224365234 0 50.67392349243164 C 0 22.68748474121094 22.68748474121094 0 50.67392349243164 0 Z"/></g><path class="b" d="M36.635,17.854c-3.845-3.308-9.968-4-14.431-4-1.853,0-3.454.12-4.472.222a1.54,1.54,0,0,0-1.365,1.563v2.756a.913.913,0,0,1-.9.924h-.009a.916.916,0,0,1-.9-.924V15.636a3.365,3.365,0,0,1,3-3.4c1.557-.155,3.124-.233,4.656-.233a39.569,39.569,0,0,1,4.868.289A19.876,19.876,0,0,1,37.78,16.433a.942.942,0,0,1,.114,1.3.873.873,0,0,1-1.259.118M9.014,59.144a.891.891,0,0,0-.8-.511.858.858,0,0,0-.4.1l0,0a.94.94,0,0,0-.4,1.239l.7,1.443a4.164,4.164,0,0,1,.416,1.819v6.308a.914.914,0,0,0,.9.924l0,0a.909.909,0,0,0,.895-.924V63.232a6.072,6.072,0,0,0-.606-2.645Zm43.7-.577V69.544a.9.9,0,1,1-1.793,0V58.566A6.573,6.573,0,0,0,46.739,52.4L39.2,49.573l-.423-.182-4.852,7.016a2.085,2.085,0,0,1-1.537.91h-.176a2.047,2.047,0,0,1-1.486-.637L29.682,55.6l-.06.491a2.206,2.206,0,0,1-.594,1.261l-.074.076.685,12.059a.914.914,0,0,1-.838.977l-.051.005a.907.907,0,0,1-.893-.87L27.2,57.993H25.475L24.815,69.6a.911.911,0,0,1-.893.87.923.923,0,0,1-.895-.948v-.031l.687-12.059-.076-.076a2.206,2.206,0,0,1-.594-1.261l-.062-.489L21.94,56.683a2.053,2.053,0,0,1-1.486.637h-.176a2.1,2.1,0,0,1-1.541-.91l-4.813-6.963L6.048,52.405a6.768,6.768,0,0,0-2.415,1.637.731.731,0,0,1-.19.131,6.7,6.7,0,0,0-1.652,4.392V69.544A.912.912,0,0,1,.9,70.47a.912.912,0,0,1-.9-.926V58.568a8.429,8.429,0,0,1,5.357-7.9L13.7,47.529l1.585-2.443a2.082,2.082,0,0,1,1.5-.957l.208-.025V39.615l-.088-.073a16.724,16.724,0,0,1-5.953-12.918V22.278l-.527-2.227a24,24,0,0,1-.678-5.671V10.905a8.352,8.352,0,0,1,7.046-8.329l.077-.011.058-.058A8.058,8.058,0,0,1,22.714,0h15.7a4.6,4.6,0,0,1,4.523,4.669v9.71a24.186,24.186,0,0,1-.675,5.671l-.53,2.169v4.912a16.045,16.045,0,0,1-4.607,11.342,16.446,16.446,0,0,1-1.34,1.214l-.09.073V44.1l.2.025a2.088,2.088,0,0,1,1.5.957l1.566,2.427,8.388,3.151a8.428,8.428,0,0,1,5.359,7.9m-26.641-17.4h.271a13.827,13.827,0,0,0,13.58-14.046V22.135a.96.96,0,0,1,.026-.224l.558-2.309a22.186,22.186,0,0,0,.622-5.223V4.669A2.774,2.774,0,0,0,38.4,1.85H22.714a6.274,6.274,0,0,0-4.757,2.214.875.875,0,0,1-.6.307A6.5,6.5,0,0,0,11.525,10.9v3.475a22.371,22.371,0,0,0,.62,5.223l.56,2.309a1.064,1.064,0,0,1,.026.224v4.494A14.18,14.18,0,0,0,26.072,41.167m7.469,0a15.006,15.006,0,0,1-7.21,1.845H26.04a14.377,14.377,0,0,1-6.916-1.929l-.35-.2.005,3.975,7.555,4.88,7.557-4.88V40.985ZM24.91,51l-7.767-5.016-.109-.013h-.123l-.139.14-1.423,2.205,4.914,7.106.174.042a.322.322,0,0,0,.248-.1Zm2.945,2.705-1.52-1.57-1.516,1.572V55.82a.317.317,0,0,0,.308.322h2.416a.315.315,0,0,0,.312-.322Zm9.47-5.391L35.832,46l-.192-.035h-.065l-.1.047L27.766,51l4.3,4.445.153.024a.315.315,0,0,0,.25-.131Zm7.647,10.418a.856.856,0,0,0-.4-.1.888.888,0,0,0-.8.511l-.706,1.443a6.066,6.066,0,0,0-.606,2.645v6.308a.914.914,0,0,0,.9.924v0a.91.91,0,0,0,.895-.924V63.236a4.214,4.214,0,0,1,.416-1.819l.706-1.443v0a.94.94,0,0,0-.4-1.239" transform="translate(24.827 14.876)"/></svg>